<?xml version="1.0" encoding="utf-8"?>
<!-- Generator: Adobe Illustrator 25.2.3, SVG Export Plug-In . SVG Version: 6.00 Build 0)  -->
<svg version="1.1" id="Calque_1" xmlns="http://www.w3.org/2000/svg" xmlns:xlink="http://www.w3.org/1999/xlink" x="0px" y="0px"
	 viewBox="0 0 15.5 18.8" style="enable-background:new 0 0 15.5 18.8;" xml:space="preserve">
<style type="text/css">
	.st0{fill:#0A0A0A;}
</style>
<path id="arrow" class="st0" d="M7.4,0.1c-0.1,0-0.2,0.1-0.2,0.2l-7,7c-0.3,0.3-0.3,0.8,0,1.1c0.3,0.3,0.8,0.3,1.1,0l5.8-5.8V18
	c0,0.4,0.3,0.8,0.8,0.8c0,0,0,0,0,0c0.4,0,0.8-0.3,0.8-0.7c0,0,0-0.1,0-0.1V2.6l5.5,5.8c0.3,0.3,0.8,0.3,1.1,0c0.3-0.3,0.3-0.7,0-1
	l-7-7C8.2,0.3,8.1,0.3,8.1,0.2C7.9,0,7.6-0.1,7.4,0.1z"/>
</svg>
