<svg width="3479" height="229" viewBox="0 0 3479 229" fill="none" xmlns="http://www.w3.org/2000/svg">
<mask id="path-1-inside-1_14_2859" fill="white">
<path fill-rule="evenodd" clip-rule="evenodd" d="M431.709 125.19L470.039 120.388C470.859 145.567 477.658 153.999 493.131 153.999C504.969 153.999 511.416 147.558 511.416 137.721C511.416 127.298 505.087 120.623 487.27 110.317L469.453 100.129C451.401 89.7058 434.288 77.1751 434.522 48.6004C434.639 18.2691 455.973 0 490.552 0C528.764 0 547.05 18.2691 547.519 56.2125L511.534 60.4285C511.299 38.529 504.501 30.3313 489.848 30.3313C479.651 30.3313 472.969 36.1868 472.969 44.7358C472.969 53.2848 477.072 59.0231 496.061 69.563L514.112 79.6344C532.164 89.8229 551.27 101.183 551.27 132.334C551.27 164.89 528.882 184.213 491.255 184.213C453.629 184.213 432.295 165.358 431.592 125.073L431.709 125.19ZM0 181.051V3.3963H45.4801L78.1835 87.4809C81.4656 95.7956 84.6304 106.101 88.4986 120.389L91.0773 120.037C89.4363 101.651 88.2641 85.8413 88.2641 71.554V3.3963H127.766V181.051H82.8722L49.6999 97.4352C46.3006 88.652 43.2529 78.9319 39.2676 62.5365L36.5716 62.8879C38.2126 80.2201 39.3848 99.6602 39.3848 115.704V181.051H0ZM142.886 126.01V102.939C142.886 66.7523 162.109 44.6187 197.509 44.6187C232.908 44.6187 252.132 66.8694 252.132 102.939V126.01C252.132 161.962 232.674 184.33 197.509 184.33C162.344 184.33 142.886 161.845 142.886 126.01ZM211.106 132.568V96.381C211.106 80.1028 206.651 72.4907 197.509 72.4907C188.366 72.4907 183.911 80.1028 183.911 96.381V132.568C183.911 148.729 188.366 156.341 197.509 156.341C206.651 156.341 211.106 148.729 211.106 132.568ZM302.771 3.3963V181.051H372.515C406.507 181.051 423.152 166.647 423.152 136.55V127.649C423.152 105.867 413.189 93.8048 392.91 89.3546V86.7782C409.79 82.6794 418.698 71.554 418.698 51.7625V44.1504C418.698 16.6297 402.991 3.3963 370.405 3.3963H302.771ZM362.082 75.6528H343.445V35.3672H362.082C373.452 35.3672 378.493 40.1687 378.493 50.9427V60.1944C378.493 70.8513 373.335 75.6528 362.082 75.6528ZM363.137 149.08H343.445V148.963V102.705H363.137C374.859 102.705 380.368 108.092 380.368 120.271V131.163C380.368 143.459 374.976 149.08 363.137 149.08ZM597.688 99.1918V129.64C597.688 165.242 609.527 182.808 632.735 182.808C652.311 182.808 662.86 172.385 669.659 153.999L672.237 154.936C668.252 167.232 666.377 175.898 666.142 181.051H705.41V3.3963H665.322V35.8356C665.322 49.069 667.08 59.2575 671.886 73.7791L669.307 75.0673C662.391 56.6811 651.49 46.0241 632.501 46.0241C609.527 46.0241 597.688 63.5905 597.688 99.1918ZM665.204 101.534V127.649V127.767C665.204 146.387 660.164 155.873 650.552 155.873C642.113 155.873 637.893 148.026 637.893 131.982V97.2009C637.893 80.9227 641.996 73.0764 650.67 73.0764C660.281 73.0764 665.204 82.9136 665.204 101.534ZM758.743 124.37V135.027C758.743 149.666 763.431 156.575 773.512 156.575C782.069 156.575 787.578 151.188 788.047 133.505L826.025 137.135C824.853 169.106 804.457 184.33 773.043 184.213C737.995 184.213 719.241 163.953 719.241 126.244V103.29C719.241 65.2299 738.23 44.6187 774.215 44.6187C810.201 44.6187 826.963 64.293 826.963 99.543C826.963 106.101 826.728 116.524 826.025 124.253H758.86L758.743 124.37ZM758.743 95.5612V100.597H786.64V91.4624C786.64 78.3462 782.186 72.2565 773.16 72.2565C763.431 72.2565 758.625 80.2199 758.625 95.4441L758.743 95.5612ZM873.967 136.666L835.871 142.288H835.754C835.637 170.628 854.04 184.33 886.861 184.33C919.681 184.33 937.615 168.989 937.615 145.098C937.615 121.208 922.026 111.605 908.194 104.344L894.245 97.0834C880.297 89.9397 875.725 85.2553 875.725 78.2288C875.725 73.0759 879.593 70.1482 885.688 70.1482C893.894 70.1482 897.645 75.4181 897.41 89.1199L934.451 83.9671C934.451 57.6175 916.634 44.9697 885.454 44.9697C854.274 44.9697 837.395 58.9057 837.395 83.85C837.395 101.534 849.82 113.244 863.886 120.974L877.835 128.586C892.018 136.315 897.176 141.819 897.176 149.548C897.176 155.521 893.542 158.8 887.329 158.8C878.187 158.8 873.732 151.539 873.967 136.666ZM949.103 35.9526V5.97256H990.012V35.9526H949.103ZM949.572 181.051V47.7806H989.66V181.051H949.572ZM1112.86 186.438C1112.86 156.224 1089.65 150.486 1070.89 146.972L1070.77 146.855L1052.14 143.342C1033.5 139.829 1030.34 137.369 1030.34 133.036C1030.34 130.46 1031.98 129.055 1035.49 128.118C1041.35 129.64 1048.03 130.46 1055.54 130.46C1088.24 130.46 1106.06 115.587 1106.06 87.5978C1106.06 68.9774 1098.09 56.0954 1083.08 49.6544C1082.61 42.9791 1088.36 40.8712 1108.52 38.9974L1105.35 5.38703C1076.4 7.26078 1065.38 23.0705 1072.88 46.4924C1067.73 45.3213 1061.98 44.8529 1055.65 44.8529C1022.72 44.8529 1004.78 59.7258 1004.78 87.5978C1004.78 104.227 1011.11 116.055 1023.07 123.199V125.776C1010.06 127.883 1003.02 135.261 1003.02 145.918C1003.02 158.332 1010.64 165.476 1021.43 169.809V172.854C1004.66 176.015 998.335 184.33 998.335 198.266C998.335 219.112 1016.27 228.832 1052.84 228.832C1093.05 228.832 1112.86 216.652 1112.86 186.438ZM1056.24 176.835C1074.99 179.763 1079.92 182.925 1079.92 190.654H1079.8C1079.8 198.5 1072.88 201.545 1055.07 201.545C1033.97 201.545 1026.7 197.798 1026.7 187.726C1026.7 181.637 1029.4 177.187 1036.66 173.907H1037.6L1056.24 176.835ZM1055.65 107.741C1047.92 107.741 1044.4 102.119 1044.4 87.5978C1044.4 73.3105 1047.92 67.5721 1055.54 67.5721C1063.16 67.5721 1066.55 73.1934 1066.55 87.5978C1066.55 102.002 1063.39 107.741 1055.65 107.741ZM1121.41 181.051V47.7805H1160.33C1160.21 55.861 1158.92 62.0678 1154.35 74.2472L1156.81 75.4183C1165.72 55.3926 1178.38 46.0239 1196.31 46.0239C1216.47 46.0239 1226.44 56.4466 1226.44 77.4092V181.051H1186.35V86.5437C1186.35 78.3461 1183.18 74.1301 1176.97 74.1301C1167.36 74.1301 1161.73 85.8411 1161.73 105.164V181.051H1121.65H1121.41ZM1284.34 76.7068V181.051H1324.43V76.8239H1344.24V47.8979H1322.79C1321.85 31.1512 1322.91 30.3315 1344.71 28.8091L1341.07 0.117254C1298.64 2.10811 1284.34 11.2426 1284.34 40.0516V47.7808H1270.39V76.7068H1284.34ZM1350.34 126.01V102.939C1350.34 66.7523 1369.56 44.6187 1404.96 44.6187C1440.36 44.6187 1459.58 66.8694 1459.58 102.939V126.01C1459.58 161.962 1440.12 184.33 1404.96 184.33C1369.79 184.33 1350.34 161.845 1350.34 126.01ZM1418.56 132.568V96.381C1418.56 80.1028 1414.1 72.4907 1404.96 72.4907C1395.82 72.4907 1391.36 80.1028 1391.36 96.381V132.568C1391.36 148.729 1395.82 156.341 1404.96 156.341C1414.1 156.341 1418.56 148.729 1418.56 132.568ZM1473.3 47.7808V180.934H1513.39V123.316C1513.39 89.4717 1518.31 83.9676 1552.42 80.6885L1548.2 43.5648C1529.8 46.0241 1520.77 52.5823 1508.81 76.2384L1506.59 74.8331C1511.63 62.4195 1513.03 55.9784 1512.68 47.7808H1473.3ZM1631.77 153.999L1629.08 154.936C1633.18 167.232 1635.05 175.898 1635.17 181.051H1596.02V3.3963H1636.11V35.9527C1636.11 49.1861 1634.23 59.3746 1629.43 73.8962L1632.01 75.1844C1639.04 56.7982 1649.94 46.1412 1668.81 46.1412C1691.79 46.1412 1703.63 63.7077 1703.63 99.3089V129.757C1703.63 165.359 1691.79 182.925 1668.58 182.925C1649.12 182.925 1638.45 172.502 1631.77 154.116V153.999ZM1663.54 131.865V97.2009C1663.54 80.9227 1659.2 73.0764 1650.76 73.0764C1641.15 73.0764 1636.34 82.7965 1636.34 101.534V127.649C1636.34 146.27 1641.15 155.756 1650.76 155.756C1659.32 155.756 1663.54 147.909 1663.54 131.865ZM1717.58 47.7808V180.934H1757.66V123.316C1757.66 89.4717 1762.59 83.9676 1796.7 80.6885L1792.48 43.5648C1774.07 46.0241 1765.05 52.5823 1753.09 76.2384L1750.86 74.8331C1755.91 62.4195 1757.31 55.9784 1756.96 47.7808H1717.58ZM1801.15 150.369V149.432C1801.15 118.983 1824.24 110.2 1844.4 104.696L1864.45 98.9576V85.2558C1864.45 76.4726 1861.52 72.3737 1854.84 72.3737C1846.98 72.3737 1843 78.2292 1843.58 98.1378L1803.85 95.5614C1803.26 62.4194 1819.91 44.7359 1855.31 44.7359C1887.07 44.7359 1904.42 58.4377 1904.42 85.49V148.378C1904.42 155.17 1906.18 156.458 1914.5 156.575L1910.28 183.276C1907.82 183.862 1904.18 184.33 1901.37 184.33C1878.05 184.33 1870.54 176.25 1873.47 154.467L1870.9 153.999C1866.32 174.142 1854.6 184.33 1833.85 184.33C1813.11 184.33 1801.27 171.097 1801.27 150.486L1801.15 150.369ZM1864.57 132.802V121.911L1856.24 124.722C1848.16 127.532 1841.59 132.919 1841.59 142.405V143.576C1841.59 150.954 1844.52 154.585 1850.27 154.585C1859.06 154.585 1864.57 145.918 1864.57 132.919V132.802ZM1924.23 47.7805V181.051H1924.46H1964.55V105.164C1964.55 85.8411 1970.18 74.1301 1979.79 74.1301C1986 74.1301 1989.17 78.3461 1989.17 86.5437V181.051H2029.25V77.4092C2029.25 56.4466 2019.29 46.0239 1999.13 46.0239C1981.2 46.0239 1968.54 55.3926 1959.63 75.4183L1957.17 74.2472C1961.74 62.0678 1963.03 55.861 1963.14 47.7805H1924.23ZM2042.5 129.64V99.1918C2042.5 63.5905 2054.34 46.0241 2077.31 46.0241C2096.3 46.0241 2107.2 56.6811 2114.12 75.0673L2116.7 73.7791C2111.89 59.2575 2110.13 49.069 2110.13 35.8356V3.3963H2150.22V181.051H2110.95C2111.19 175.898 2113.06 167.232 2117.05 154.936L2114.47 153.999C2107.67 172.385 2097.12 182.808 2077.55 182.808C2054.34 182.808 2042.5 165.242 2042.5 129.64ZM2110.02 127.649V101.534C2110.02 82.9136 2105.09 73.0764 2095.48 73.0764C2086.81 73.0764 2082.7 80.9227 2082.7 97.2009V131.982C2082.7 148.026 2086.92 155.873 2095.36 155.873C2104.98 155.873 2110.02 146.387 2110.02 127.767V127.649ZM2200.39 136.666L2162.29 142.288H2162.18C2162.06 170.628 2180.46 184.33 2213.28 184.33C2246.1 184.33 2264.04 168.989 2264.04 145.098C2264.04 121.208 2248.45 111.605 2234.62 104.344L2220.67 97.0834C2206.72 89.9397 2202.15 85.2553 2202.15 78.2288C2202.15 73.0759 2206.02 70.1482 2212.11 70.1482C2220.32 70.1482 2224.07 75.4181 2223.83 89.1199L2260.87 83.9671C2260.87 57.6175 2243.06 44.9697 2211.88 44.9697C2180.7 44.9697 2163.82 58.9057 2163.82 83.85C2163.82 101.534 2176.24 113.244 2190.31 120.974L2204.26 128.586C2218.44 136.315 2223.6 141.819 2223.6 149.548C2223.6 155.521 2219.97 158.8 2213.75 158.8C2204.61 158.8 2200.16 151.539 2200.39 136.666ZM2307.76 126.01V102.939C2307.76 66.7523 2326.98 44.6187 2362.38 44.6187C2397.78 44.6187 2417.01 66.8694 2417.01 102.939V126.01C2417.01 161.962 2397.55 184.33 2362.38 184.33C2327.22 184.33 2307.76 161.845 2307.76 126.01ZM2375.98 132.568V96.381C2375.98 80.1028 2371.53 72.4907 2362.38 72.4907C2353.24 72.4907 2348.79 80.1028 2348.79 96.381V132.568C2348.79 148.729 2353.24 156.341 2362.38 156.341C2371.53 156.341 2375.98 148.729 2375.98 132.568ZM2430.84 47.7805V181.051H2431.07H2471.16V105.164C2471.16 85.8411 2476.79 74.1301 2486.4 74.1301C2492.61 74.1301 2495.78 78.3461 2495.78 86.5437V181.051H2535.86V77.4092C2535.86 56.4466 2525.9 46.0239 2505.74 46.0239C2487.81 46.0239 2475.15 55.3926 2466.24 75.4183L2463.78 74.2472C2468.35 62.0678 2469.64 55.861 2469.75 47.7805H2430.84ZM2582.52 150.369V149.432C2582.52 118.983 2605.61 110.2 2625.77 104.696L2645.81 98.9576V85.2558C2645.81 76.4726 2642.88 72.3737 2636.2 72.3737C2628.35 72.3737 2624.36 78.2292 2624.95 98.1378L2585.21 95.5614C2584.63 62.4194 2601.27 44.7359 2636.67 44.7359C2668.44 44.7359 2685.78 58.4377 2685.78 85.49V148.378C2685.78 155.17 2687.54 156.458 2695.87 156.575L2691.65 183.276C2689.18 183.862 2685.55 184.33 2682.74 184.33C2659.41 184.33 2651.91 176.25 2654.84 154.467L2652.26 153.999C2647.69 174.142 2635.97 184.33 2615.22 184.33C2594.47 184.33 2582.63 171.097 2582.63 150.486L2582.52 150.369ZM2645.93 132.802V121.911L2637.61 124.722C2629.52 127.532 2622.96 132.919 2622.96 142.405V143.576C2622.96 150.954 2625.89 154.585 2631.63 154.585C2640.42 154.585 2645.93 145.918 2645.93 132.919V132.802ZM2741.11 47.7805V181.051H2741.35H2781.43V103.525C2781.43 85.1384 2786.47 74.1301 2794.91 74.1301C2800.42 74.1301 2803.47 78.6974 2803.47 86.4266V181.051H2843.56V103.407C2843.56 85.3726 2848.48 74.2472 2857.04 74.2472C2862.66 74.2472 2865.59 78.5803 2865.59 86.4266V181.051H2905.68V79.0487C2905.68 56.7979 2896.66 46.141 2877.32 46.141C2859.03 46.141 2846.96 55.861 2837.81 76.9407L2835.35 76.0039C2839.46 57.6177 2831.6 46.0239 2814.49 46.0239C2798.9 46.0239 2788.47 53.7531 2776.39 75.4183L2774.05 74.2472C2779.21 60.4283 2780.5 54.2215 2780.14 47.7805H2741.11ZM2920.69 35.9526V5.97256H2961.6V35.9526H2920.69ZM2921.16 181.051V47.7806H2961.24V181.051H2921.16ZM3011.41 136.666L2973.32 142.288H2973.2C2973.08 170.628 2991.49 184.33 3024.31 184.33C3057.13 184.33 3075.06 168.989 3075.06 145.098C3075.06 121.208 3059.47 111.605 3045.64 104.344L3031.69 97.0834C3017.74 89.9397 3013.17 85.2553 3013.17 78.2288C3013.17 73.0759 3017.04 70.1482 3023.13 70.1482C3031.34 70.1482 3035.09 75.4181 3034.86 89.1199L3071.9 83.9671C3071.9 57.6175 3054.08 44.9697 3022.9 44.9697C2991.72 44.9697 2974.84 58.9057 2974.84 83.85C2974.84 101.534 2987.27 113.244 3001.33 120.974L3015.28 128.586C3029.46 136.315 3034.62 141.819 3034.62 149.548C3034.62 155.521 3030.99 158.8 3024.77 158.8C3015.63 158.8 3011.18 151.539 3011.41 136.666ZM3083.03 142.288L3121.13 136.666C3120.89 151.539 3125.35 158.8 3134.49 158.8C3140.7 158.8 3144.34 155.521 3144.34 149.548C3144.34 141.819 3139.18 136.315 3125 128.586L3111.05 120.974C3096.98 113.244 3084.56 101.534 3084.56 83.85C3084.56 58.9057 3101.43 44.9697 3132.61 44.9697C3163.79 44.9697 3181.61 57.6175 3181.61 83.9671L3144.57 89.1199C3144.8 75.4181 3141.05 70.1482 3132.85 70.1482C3126.75 70.1482 3122.89 73.0759 3122.89 78.2288C3122.89 85.2553 3127.46 89.9397 3141.41 97.0834L3155.35 104.344C3169.19 111.605 3184.78 121.208 3184.78 145.098C3184.78 168.989 3166.84 184.33 3134.02 184.33C3101.2 184.33 3082.8 170.628 3082.91 142.288H3083.03ZM3196.38 5.97256V35.9526H3237.29V5.97256H3196.38ZM3196.85 47.7806V181.051H3236.94V47.7806H3196.85ZM3250.65 126.01V102.939C3250.65 66.7523 3269.88 44.6187 3305.28 44.6187C3340.67 44.6187 3359.9 66.8694 3359.9 102.939V126.01C3359.9 161.962 3340.44 184.33 3305.28 184.33C3270.11 184.33 3250.65 161.845 3250.65 126.01ZM3318.87 132.568V96.381C3318.87 80.1028 3314.42 72.4907 3305.28 72.4907C3296.13 72.4907 3291.68 80.1028 3291.68 96.381V132.568C3291.68 148.729 3296.13 156.341 3305.28 156.341C3314.42 156.341 3318.87 148.729 3318.87 132.568ZM3373.73 47.7805V181.051H3373.96H3414.05V105.164C3414.05 85.8411 3419.68 74.1301 3429.29 74.1301C3435.5 74.1301 3438.67 78.3461 3438.67 86.5437V181.051H3478.76V77.4092C3478.76 56.4466 3468.79 46.0239 3448.63 46.0239C3430.7 46.0239 3418.04 55.3926 3409.13 75.4183L3406.67 74.2472C3411.24 62.0678 3412.53 55.861 3412.65 47.7805H3373.73Z"/>
</mask>
<path d="M470.039 120.388L472.038 120.323L471.966 118.131L469.79 118.404L470.039 120.388ZM431.709 125.19L430.296 126.605L430.987 127.296L431.958 127.174L431.709 125.19ZM487.27 110.317L488.271 108.586L488.263 108.581L487.27 110.317ZM469.453 100.129L468.453 101.861L468.46 101.865L469.453 100.129ZM434.522 48.6004L436.522 48.6168L436.522 48.6081L434.522 48.6004ZM547.519 56.2125L547.752 58.1989L549.541 57.9893L549.519 56.1878L547.519 56.2125ZM511.534 60.4285L509.534 60.4499L509.557 62.6736L511.766 62.4149L511.534 60.4285ZM496.061 69.563L497.035 67.8164L497.032 67.8143L496.061 69.563ZM514.112 79.6344L515.095 77.8927L515.087 77.8878L514.112 79.6344ZM431.592 125.073L433.005 123.658L429.506 120.162L429.592 125.108L431.592 125.073ZM0 3.3963V1.3963H-2V3.3963H0ZM0 181.051H-2V183.051H0V181.051ZM45.4801 3.3963L47.344 2.67133L46.8481 1.3963H45.4801V3.3963ZM78.1835 87.4809L76.3195 88.2058L76.3232 88.2152L78.1835 87.4809ZM88.4986 120.389L86.5681 120.911L87.0273 122.608L88.7686 122.37L88.4986 120.389ZM91.0773 120.037L91.3473 122.019L93.2392 121.761L93.0694 119.859L91.0773 120.037ZM88.2641 3.3963V1.3963H86.2641V3.3963H88.2641ZM127.766 3.3963H129.766V1.3963H127.766V3.3963ZM127.766 181.051V183.051H129.766V181.051H127.766ZM82.8722 181.051L81.0131 181.789L81.514 183.051H82.8722V181.051ZM49.6999 97.4352L47.8347 98.157L47.8377 98.1649L47.8408 98.1727L49.6999 97.4352ZM39.2676 62.5365L41.211 62.0641L40.7874 60.3216L39.0091 60.5533L39.2676 62.5365ZM36.5716 62.8879L36.3131 60.9046L34.3985 61.1542L34.5805 63.0764L36.5716 62.8879ZM39.3848 181.051V183.051H41.3848V181.051H39.3848ZM302.771 181.051H300.771V183.051H302.771V181.051ZM302.771 3.3963V1.3963H300.771V3.3963H302.771ZM392.91 89.3546H390.91V90.9633L392.482 91.3081L392.91 89.3546ZM392.91 86.7782L392.438 84.8347L390.91 85.2057V86.7782H392.91ZM343.445 75.6528H341.445V77.6528H343.445V75.6528ZM343.445 35.3672V33.3672H341.445V35.3672H343.445ZM343.445 149.08H341.445V151.08H343.445V149.08ZM343.445 102.705V100.705H341.445V102.705H343.445ZM669.659 153.999L670.342 152.119L668.473 151.44L667.783 153.305L669.659 153.999ZM672.237 154.936L674.14 155.553L674.735 153.716L672.92 153.056L672.237 154.936ZM666.142 181.051L664.144 180.96L664.049 183.051H666.142V181.051ZM705.41 181.051V183.051H707.41V181.051H705.41ZM705.41 3.3963H707.41V1.3963H705.41V3.3963ZM665.322 3.3963V1.3963H663.322V3.3963H665.322ZM671.886 73.7791L672.78 75.5682L674.329 74.7945L673.785 73.1507L671.886 73.7791ZM669.307 75.0673L667.435 75.7714L668.216 77.8479L670.201 76.8564L669.307 75.0673ZM758.743 124.37L757.329 122.955L756.743 123.541V124.37H758.743ZM788.047 133.505L788.237 131.514L786.104 131.31L786.047 133.452L788.047 133.505ZM826.025 137.135L828.024 137.208L828.093 135.324L826.215 135.144L826.025 137.135ZM773.043 184.213L773.05 182.213H773.043V184.213ZM826.025 124.253V126.253H827.851L828.017 124.434L826.025 124.253ZM758.86 124.253V122.253H758.032L757.446 122.838L758.86 124.253ZM758.743 100.597H756.743V102.597H758.743V100.597ZM758.743 95.5612H760.743V94.7324L760.156 94.1465L758.743 95.5612ZM786.64 100.597V102.597H788.64V100.597H786.64ZM758.625 95.4441H756.625V96.273L757.212 96.8589L758.625 95.4441ZM835.871 142.288V144.288H836.018L836.163 144.266L835.871 142.288ZM873.967 136.666L875.967 136.698L876.004 134.344L873.675 134.688L873.967 136.666ZM835.754 142.288V140.288H833.762L833.754 142.279L835.754 142.288ZM908.194 104.344L909.124 102.573L909.118 102.57L908.194 104.344ZM894.245 97.0834L895.169 95.3093L895.157 95.3032L894.245 97.0834ZM897.41 89.1199L895.41 89.0857L895.37 91.4229L897.686 91.1009L897.41 89.1199ZM934.451 83.9671L934.726 85.948L936.451 85.7082V83.9671H934.451ZM863.886 120.974L862.923 122.727L862.928 122.729L863.886 120.974ZM877.835 128.586L876.877 130.341L876.878 130.342L877.835 128.586ZM949.103 5.97256V3.97256H947.103V5.97256H949.103ZM949.103 35.9526H947.103V37.9526H949.103V35.9526ZM990.012 5.97256H992.012V3.97256H990.012V5.97256ZM990.012 35.9526V37.9526H992.012V35.9526H990.012ZM949.572 47.7806V45.7806H947.572V47.7806H949.572ZM949.572 181.051H947.572V183.051H949.572V181.051ZM989.66 47.7806H991.66V45.7806H989.66V47.7806ZM989.66 181.051V183.051H991.66V181.051H989.66ZM1070.89 146.972L1069.48 148.387L1069.92 148.824L1070.52 148.938L1070.89 146.972ZM1070.77 146.855L1072.19 145.441L1071.75 145.004L1071.15 144.89L1070.77 146.855ZM1052.14 143.342L1052.51 141.377L1052.14 143.342ZM1035.49 128.118L1036 126.182L1035.49 126.05L1034.98 126.185L1035.49 128.118ZM1083.08 49.6544L1081.09 49.7945L1081.17 51.0111L1082.29 51.4922L1083.08 49.6544ZM1108.52 38.9974L1108.7 40.9888L1110.7 40.8035L1110.51 38.8099L1108.52 38.9974ZM1105.35 5.38703L1107.34 5.19953L1107.16 3.26576L1105.22 3.3912L1105.35 5.38703ZM1072.88 46.4924L1072.44 48.4428L1075.86 49.2185L1074.79 45.8824L1072.88 46.4924ZM1023.07 123.199H1025.07V122.064L1024.09 121.482L1023.07 123.199ZM1023.07 125.776L1023.39 127.75L1025.07 127.478V125.776H1023.07ZM1021.43 169.809H1023.43V168.457L1022.17 167.953L1021.43 169.809ZM1021.43 172.854L1021.8 174.819L1023.43 174.511V172.854H1021.43ZM1079.92 190.654V192.654H1081.92V190.654H1079.92ZM1056.24 176.835L1055.93 178.811L1055.93 178.811L1056.24 176.835ZM1079.8 190.654V188.654H1077.8V190.654H1079.8ZM1036.66 173.907V171.907H1036.23L1035.84 172.084L1036.66 173.907ZM1037.6 173.907L1037.91 171.932L1037.76 171.907H1037.6V173.907ZM1121.41 47.7805V45.7805H1119.41V47.7805H1121.41ZM1121.41 181.051H1119.41V183.051H1121.41V181.051ZM1160.33 47.7805L1162.33 47.8095L1162.36 45.7805H1160.33V47.7805ZM1154.35 74.2472L1152.48 73.5444L1151.83 75.2641L1153.49 76.0532L1154.35 74.2472ZM1156.81 75.4183L1155.95 77.2243L1157.8 78.1058L1158.64 76.2312L1156.81 75.4183ZM1226.44 181.051V183.051H1228.44V181.051H1226.44ZM1186.35 181.051H1184.35V183.051H1186.35V181.051ZM1161.73 181.051V183.051H1163.73V181.051H1161.73ZM1284.34 181.051H1282.34V183.051H1284.34V181.051ZM1284.34 76.7068H1286.34V74.7068H1284.34V76.7068ZM1324.43 181.051V183.051H1326.43V181.051H1324.43ZM1324.43 76.8239V74.8239H1322.43V76.8239H1324.43ZM1344.24 76.8239V78.8239H1346.24V76.8239H1344.24ZM1344.24 47.8979H1346.24V45.8979H1344.24V47.8979ZM1322.79 47.8979L1320.79 48.0097L1320.9 49.8979H1322.79V47.8979ZM1344.71 28.8091L1344.85 30.8042L1346.96 30.6568L1346.69 28.5578L1344.71 28.8091ZM1341.07 0.117254L1343.06 -0.134029L1342.83 -1.96715L1340.98 -1.88055L1341.07 0.117254ZM1284.34 47.7808V49.7808H1286.34V47.7808H1284.34ZM1270.39 47.7808V45.7808H1268.39V47.7808H1270.39ZM1270.39 76.7068H1268.39V78.7068H1270.39V76.7068ZM1473.3 180.934H1471.3V182.934H1473.3V180.934ZM1473.3 47.7808V45.7808H1471.3V47.7808H1473.3ZM1513.39 180.934V182.934H1515.39V180.934H1513.39ZM1552.42 80.6885L1552.61 82.6794L1554.64 82.4846L1554.41 80.4627L1552.42 80.6885ZM1548.2 43.5648L1550.19 43.339L1549.96 41.3123L1547.93 41.5825L1548.2 43.5648ZM1508.81 76.2384L1507.75 77.9298L1509.61 79.1035L1510.6 77.1405L1508.81 76.2384ZM1506.59 74.8331L1504.73 74.0806L1504.1 75.6314L1505.52 76.5245L1506.59 74.8331ZM1512.68 47.7808L1514.68 47.6951L1514.6 45.7808H1512.68V47.7808ZM1629.08 154.936L1628.42 153.047L1626.55 153.695L1627.18 155.569L1629.08 154.936ZM1631.77 153.999H1633.77V151.187L1631.12 152.11L1631.77 153.999ZM1635.17 181.051V183.051H1637.22L1637.17 181.006L1635.17 181.051ZM1596.02 181.051H1594.02V183.051H1596.02V181.051ZM1596.02 3.3963V1.3963H1594.02V3.3963H1596.02ZM1636.11 3.3963H1638.11V1.3963H1636.11V3.3963ZM1629.43 73.8962L1627.53 73.2678L1626.98 74.9116L1628.53 75.6854L1629.43 73.8962ZM1632.01 75.1844L1631.11 76.9736L1633.09 77.9594L1633.87 75.8989L1632.01 75.1844ZM1631.77 154.116H1629.77V154.468L1629.89 154.799L1631.77 154.116ZM1717.58 180.934H1715.58V182.934H1717.58V180.934ZM1717.58 47.7808V45.7808H1715.58V47.7808H1717.58ZM1757.66 180.934V182.934H1759.66V180.934H1757.66ZM1796.7 80.6885L1796.89 82.6794L1798.91 82.4846L1798.68 80.4627L1796.7 80.6885ZM1792.48 43.5648L1794.46 43.339L1794.23 41.3123L1792.21 41.5825L1792.48 43.5648ZM1753.09 76.2384L1752.02 77.9298L1753.88 79.1035L1754.88 77.1405L1753.09 76.2384ZM1750.86 74.8331L1749.01 74.0806L1748.38 75.6314L1749.8 76.5245L1750.86 74.8331ZM1756.96 47.7808L1758.96 47.6951L1758.88 45.7808H1756.96V47.7808ZM1801.15 150.369H1799.15V151.197L1799.74 151.783L1801.15 150.369ZM1844.4 104.696L1844.93 106.625L1844.94 106.622L1844.95 106.619L1844.4 104.696ZM1864.45 98.9576L1865 100.88L1866.45 100.465V98.9576H1864.45ZM1843.58 98.1378L1843.45 100.134L1845.65 100.276L1845.58 98.0789L1843.58 98.1378ZM1803.85 95.5614L1801.85 95.5968L1801.88 97.438L1803.72 97.5572L1803.85 95.5614ZM1914.5 156.575L1916.48 156.888L1916.84 154.608L1914.53 154.576L1914.5 156.575ZM1910.28 183.276L1910.74 185.222L1912.05 184.912L1912.26 183.589L1910.28 183.276ZM1873.47 154.467L1875.46 154.734L1875.71 152.841L1873.83 152.5L1873.47 154.467ZM1870.9 153.999L1871.25 152.031L1869.37 151.689L1868.94 153.556L1870.9 153.999ZM1801.27 150.486H1803.27V149.657L1802.68 149.071L1801.27 150.486ZM1864.57 121.911H1866.57V119.125L1863.93 120.016L1864.57 121.911ZM1856.24 124.722L1855.6 122.827L1855.59 122.83L1855.59 122.832L1856.24 124.722ZM1924.23 181.051H1922.23V183.051H1924.23V181.051ZM1924.23 47.7805V45.7805H1922.23V47.7805H1924.23ZM1964.55 181.051V183.051H1966.55V181.051H1964.55ZM1989.17 181.051H1987.17V183.051H1989.17V181.051ZM2029.25 181.051V183.051H2031.25V181.051H2029.25ZM1959.63 75.4183L1958.77 77.2243L1960.62 78.1058L1961.45 76.2312L1959.63 75.4183ZM1957.17 74.2472L1955.29 73.5444L1954.65 75.2641L1956.31 76.0532L1957.17 74.2472ZM1963.14 47.7805L1965.14 47.8095L1965.17 45.7805H1963.14V47.7805ZM2114.12 75.0673L2112.25 75.7714L2113.03 77.8478L2115.01 76.8565L2114.12 75.0673ZM2116.7 73.7791L2117.59 75.5682L2119.14 74.7945L2118.6 73.1507L2116.7 73.7791ZM2110.13 3.3963V1.3963H2108.13V3.3963H2110.13ZM2150.22 3.3963H2152.22V1.3963H2150.22V3.3963ZM2150.22 181.051V183.051H2152.22V181.051H2150.22ZM2110.95 181.051L2108.96 180.96L2108.86 183.051H2110.95V181.051ZM2117.05 154.936L2118.95 155.553L2119.55 153.716L2117.73 153.056L2117.05 154.936ZM2114.47 153.999L2115.15 152.119L2113.28 151.44L2112.59 153.305L2114.47 153.999ZM2162.29 142.288V144.288H2162.44L2162.59 144.266L2162.29 142.288ZM2200.39 136.666L2202.39 136.698L2202.43 134.344L2200.1 134.688L2200.39 136.666ZM2162.18 142.288V140.288H2160.19L2160.18 142.279L2162.18 142.288ZM2234.62 104.344L2235.55 102.573L2235.54 102.57L2234.62 104.344ZM2220.67 97.0834L2221.59 95.3093L2221.58 95.3032L2220.67 97.0834ZM2223.83 89.1199L2221.83 89.0857L2221.79 91.4229L2224.11 91.1009L2223.83 89.1199ZM2260.87 83.9671L2261.15 85.948L2262.87 85.7082V83.9671H2260.87ZM2190.31 120.974L2189.35 122.727L2189.35 122.729L2190.31 120.974ZM2204.26 128.586L2203.3 130.341L2203.3 130.342L2204.26 128.586ZM2430.84 181.051H2428.84V183.051H2430.84V181.051ZM2430.84 47.7805V45.7805H2428.84V47.7805H2430.84ZM2471.16 181.051V183.051H2473.16V181.051H2471.16ZM2495.78 181.051H2493.78V183.051H2495.78V181.051ZM2535.86 181.051V183.051H2537.86V181.051H2535.86ZM2466.24 75.4183L2465.38 77.2244L2467.23 78.1057L2468.07 76.2312L2466.24 75.4183ZM2463.78 74.2472L2461.9 73.5444L2461.26 75.2641L2462.92 76.0533L2463.78 74.2472ZM2469.75 47.7805L2471.75 47.8095L2471.78 45.7805H2469.75V47.7805ZM2582.52 150.369H2580.52V151.197L2581.1 151.783L2582.52 150.369ZM2625.77 104.696L2626.3 106.625L2626.31 106.622L2626.32 106.619L2625.77 104.696ZM2645.81 98.9576L2646.36 100.88L2647.81 100.465V98.9576H2645.81ZM2624.95 98.1378L2624.82 100.134L2627.01 100.276L2626.95 98.0789L2624.95 98.1378ZM2585.21 95.5614L2583.21 95.5968L2583.25 97.438L2585.08 97.5572L2585.21 95.5614ZM2695.87 156.575L2697.84 156.888L2698.2 154.608L2695.89 154.576L2695.87 156.575ZM2691.65 183.276L2692.11 185.222L2693.41 184.912L2693.62 183.589L2691.65 183.276ZM2654.84 154.467L2656.82 154.734L2657.08 152.841L2655.2 152.5L2654.84 154.467ZM2652.26 153.999L2652.62 152.031L2650.73 151.689L2650.31 153.556L2652.26 153.999ZM2582.63 150.486H2584.63V149.657L2584.05 149.071L2582.63 150.486ZM2645.93 121.911H2647.93V119.125L2645.29 120.016L2645.93 121.911ZM2637.61 124.722L2636.97 122.827L2636.96 122.83L2636.95 122.832L2637.61 124.722ZM2741.11 181.051H2739.11V183.051H2741.11V181.051ZM2741.11 47.7805V45.7805H2739.11V47.7805H2741.11ZM2781.43 181.051V183.051H2783.43V181.051H2781.43ZM2803.47 181.051H2801.47V183.051H2803.47V181.051ZM2843.56 181.051V183.051H2845.56V181.051H2843.56ZM2865.59 181.051H2863.59V183.051H2865.59V181.051ZM2905.68 181.051V183.051H2907.68V181.051H2905.68ZM2837.81 76.9407L2837.1 78.8099L2838.89 79.4897L2839.65 77.7366L2837.81 76.9407ZM2835.35 76.0039L2833.4 75.5683L2833.02 77.2574L2834.64 77.873L2835.35 76.0039ZM2776.39 75.4183L2775.5 77.2075L2777.21 78.0618L2778.14 76.3919L2776.39 75.4183ZM2774.05 74.2472L2772.17 73.5479L2771.55 75.2328L2773.15 76.0364L2774.05 74.2472ZM2780.14 47.7805L2782.14 47.6715L2782.04 45.7805H2780.14V47.7805ZM2920.69 5.97256V3.97256H2918.69V5.97256H2920.69ZM2920.69 35.9526H2918.69V37.9526H2920.69V35.9526ZM2961.6 5.97256H2963.6V3.97256H2961.6V5.97256ZM2961.6 35.9526V37.9526H2963.6V35.9526H2961.6ZM2921.16 47.7806V45.7806H2919.16V47.7806H2921.16ZM2921.16 181.051H2919.16V183.051H2921.16V181.051ZM2961.24 47.7806H2963.24V45.7806H2961.24V47.7806ZM2961.24 181.051V183.051H2963.24V181.051H2961.24ZM2973.32 142.288V144.288H2973.46L2973.61 144.266L2973.32 142.288ZM3011.41 136.666L3013.41 136.698L3013.45 134.344L3011.12 134.688L3011.41 136.666ZM2973.2 142.288V140.288H2971.21L2971.2 142.279L2973.2 142.288ZM3045.64 104.344L3046.57 102.573L3046.56 102.57L3045.64 104.344ZM3031.69 97.0834L3032.61 95.3093L3032.6 95.3032L3031.69 97.0834ZM3034.86 89.1199L3032.86 89.0857L3032.82 91.4229L3035.13 91.1009L3034.86 89.1199ZM3071.9 83.9671L3072.17 85.948L3073.9 85.7082V83.9671H3071.9ZM3001.33 120.974L3000.37 122.727L3000.37 122.729L3001.33 120.974ZM3015.28 128.586L3014.32 130.341L3014.32 130.342L3015.28 128.586ZM3121.13 136.666L3123.13 136.698L3123.16 134.344L3120.83 134.688L3121.13 136.666ZM3083.03 142.288V144.288H3083.18L3083.32 144.266L3083.03 142.288ZM3125 128.586L3124.04 130.341L3124.04 130.342L3125 128.586ZM3111.05 120.974L3110.08 122.727L3110.09 122.729L3111.05 120.974ZM3181.61 83.9671L3181.89 85.948L3183.61 85.7082V83.9671H3181.61ZM3144.57 89.1199L3142.57 89.0857L3142.53 91.4229L3144.85 91.1009L3144.57 89.1199ZM3141.41 97.0834L3142.33 95.3093L3142.32 95.3032L3141.41 97.0834ZM3155.35 104.344L3156.28 102.573L3156.28 102.57L3155.35 104.344ZM3082.91 142.288V140.288H3080.92L3080.91 142.279L3082.91 142.288ZM3196.38 35.9526H3194.38V37.9526H3196.38V35.9526ZM3196.38 5.97256V3.97256H3194.38V5.97256H3196.38ZM3237.29 35.9526V37.9526H3239.29V35.9526H3237.29ZM3237.29 5.97256H3239.29V3.97256H3237.29V5.97256ZM3196.85 181.051H3194.85V183.051H3196.85V181.051ZM3196.85 47.7806V45.7806H3194.85V47.7806H3196.85ZM3236.94 181.051V183.051H3238.94V181.051H3236.94ZM3236.94 47.7806H3238.94V45.7806H3236.94V47.7806ZM3373.73 181.051H3371.73V183.051H3373.73V181.051ZM3373.73 47.7805V45.7805H3371.73V47.7805H3373.73ZM3414.05 181.051V183.051H3416.05V181.051H3414.05ZM3438.67 181.051H3436.67V183.051H3438.67V181.051ZM3478.76 181.051V183.051H3480.76V181.051H3478.76ZM3409.13 75.4183L3408.27 77.2244L3410.12 78.1057L3410.96 76.2312L3409.13 75.4183ZM3406.67 74.2472L3404.8 73.5444L3404.15 75.2641L3405.81 76.0533L3406.67 74.2472ZM3412.65 47.7805L3414.65 47.8095L3414.68 45.7805H3412.65V47.7805ZM469.79 118.404L431.46 123.205L431.958 127.174L470.287 122.373L469.79 118.404ZM493.131 151.999C485.784 151.999 480.954 150.025 477.72 145.477C474.346 140.73 472.446 132.842 472.038 120.323L468.04 120.454C468.452 133.113 470.362 142.03 474.46 147.795C478.699 153.757 485.004 155.999 493.131 155.999V151.999ZM509.416 137.721C509.416 142.188 507.966 145.682 505.36 148.076C502.735 150.487 498.699 151.999 493.131 151.999V155.999C499.401 155.999 504.508 154.29 508.066 151.022C511.644 147.735 513.416 143.091 513.416 137.721H509.416ZM486.268 112.048C495.152 117.187 500.95 121.301 504.534 125.308C508.024 129.211 509.416 133.014 509.416 137.721H513.416C513.416 132.005 511.644 127.259 507.515 122.642C503.48 118.13 497.205 113.753 488.271 108.586L486.268 112.048ZM468.46 101.865L486.277 112.053L488.263 108.581L470.446 98.3924L468.46 101.865ZM432.522 48.584C432.401 63.3252 436.772 74.0559 443.578 82.4326C450.329 90.7423 459.396 96.6313 468.453 101.861L470.453 98.3965C461.458 93.203 452.942 87.6154 446.683 79.9103C440.477 72.2723 436.409 62.4503 436.522 48.6168L432.522 48.584ZM490.552 -2C472.927 -2 458.436 2.65656 448.306 11.4128C438.141 20.1995 432.583 32.9296 432.522 48.5927L436.522 48.6081C436.579 33.9399 441.746 22.3698 450.922 14.4391C460.132 6.47797 473.597 2 490.552 2V-2ZM549.519 56.1878C549.281 36.9303 544.518 22.2757 534.596 12.456C524.674 2.6355 509.946 -2 490.552 -2V2C509.37 2 522.891 6.49903 531.782 15.2989C540.674 24.0996 545.288 37.5513 545.519 56.2372L549.519 56.1878ZM511.766 62.4149L547.752 58.1989L547.286 54.2261L511.301 58.442L511.766 62.4149ZM489.848 32.3313C496.784 32.3313 501.434 34.2489 504.493 38.3612C507.665 42.6258 509.418 49.616 509.534 60.4499L513.533 60.4071C513.415 49.3415 511.651 41.2831 507.702 35.974C503.64 30.5126 497.565 28.3313 489.848 28.3313V32.3313ZM474.969 44.7358C474.969 41.0188 476.404 37.9805 478.889 35.8441C481.399 33.6859 485.123 32.3313 489.848 32.3313V28.3313C484.376 28.3313 479.661 29.9046 476.281 32.8113C472.875 35.7399 470.969 39.9038 470.969 44.7358H474.969ZM497.032 67.8143C487.563 62.559 482.048 58.6246 478.888 55.0734C475.852 51.6605 474.969 48.5789 474.969 44.7358H470.969C470.969 49.4417 472.138 53.5037 475.9 57.7322C479.539 61.8224 485.569 66.0271 495.09 71.3117L497.032 67.8143ZM515.087 77.8878L497.035 67.8164L495.086 71.3095L513.138 81.381L515.087 77.8878ZM553.27 132.334C553.27 116.29 548.328 105.188 540.963 96.8032C533.674 88.5046 524.089 82.9691 515.095 77.8927L513.129 81.3761C522.187 86.4882 531.181 91.7268 537.958 99.4429C544.659 107.072 549.27 117.226 549.27 132.334H553.27ZM491.255 186.213C510.39 186.213 525.912 181.3 536.68 171.995C547.487 162.658 553.27 149.099 553.27 132.334H549.27C549.27 148.125 543.859 160.506 534.065 168.969C524.232 177.465 509.747 182.213 491.255 182.213V186.213ZM429.592 125.108C429.95 145.583 435.56 160.955 446.19 171.191C456.813 181.42 472.13 186.213 491.255 186.213V182.213C472.754 182.213 458.591 177.579 448.964 168.309C439.345 159.047 433.937 144.848 433.591 125.038L429.592 125.108ZM433.122 123.775L433.005 123.658L430.178 126.488L430.296 126.605L433.122 123.775ZM-2 3.3963V181.051H2V3.3963H-2ZM45.4801 1.3963H0V5.3963H45.4801V1.3963ZM80.0475 86.7559L47.344 2.67133L43.6161 4.12126L76.3195 88.2058L80.0475 86.7559ZM90.4291 119.866C86.5559 105.56 83.3679 95.1677 80.0438 86.7465L76.3232 88.2152C79.5633 96.4236 82.7049 106.643 86.5681 120.911L90.4291 119.866ZM90.8073 118.056L88.2286 118.407L88.7686 122.37L91.3473 122.019L90.8073 118.056ZM86.2641 71.554C86.2641 85.938 87.4439 101.825 89.0853 120.215L93.0694 119.859C91.4287 101.477 90.2641 85.7446 90.2641 71.554H86.2641ZM86.2641 3.3963V71.554H90.2641V3.3963H86.2641ZM127.766 1.3963H88.2641V5.3963H127.766V1.3963ZM129.766 181.051V3.3963H125.766V181.051H129.766ZM82.8722 183.051H127.766V179.051H82.8722V183.051ZM47.8408 98.1727L81.0131 181.789L84.7312 180.314L51.5589 96.6976L47.8408 98.1727ZM37.3242 63.0089C41.323 79.4597 44.3946 89.2685 47.8347 98.157L51.565 96.7133C48.2065 88.0354 45.1829 78.404 41.211 62.0641L37.3242 63.0089ZM36.83 64.8711L39.526 64.5198L39.0091 60.5533L36.3131 60.9046L36.83 64.8711ZM41.3848 115.704C41.3848 99.578 40.2075 80.0715 38.5627 62.6994L34.5805 63.0764C36.2178 80.3687 37.3848 99.7425 37.3848 115.704H41.3848ZM41.3848 181.051V115.704H37.3848V181.051H41.3848ZM0 183.051H39.3848V179.051H0V183.051ZM140.886 102.939V126.01H144.886V102.939H140.886ZM197.509 42.6187C179.379 42.6187 165.139 48.2998 155.449 58.8564C145.783 69.3874 140.886 84.5089 140.886 102.939H144.886C144.886 85.1825 149.6 71.1438 158.396 61.5613C167.168 52.0044 180.239 46.6187 197.509 46.6187V42.6187ZM254.131 102.939C254.131 84.5661 249.234 69.4459 239.569 58.9014C229.881 48.331 215.641 42.6187 197.509 42.6187V46.6187C214.776 46.6187 227.847 52.0317 236.62 61.6041C245.418 71.2024 250.131 85.2425 250.131 102.939H254.131ZM254.131 126.01V102.939H250.131V126.01H254.131ZM197.509 186.33C215.53 186.33 229.766 180.585 239.48 170.005C249.171 159.449 254.131 144.332 254.131 126.01H250.131C250.131 143.64 245.363 157.683 236.534 167.3C227.727 176.892 214.652 182.33 197.509 182.33V186.33ZM140.886 126.01C140.886 144.275 145.847 159.391 155.536 169.96C165.248 180.554 179.484 186.33 197.509 186.33V182.33C180.368 182.33 167.292 176.864 158.484 167.257C149.654 157.624 144.886 143.58 144.886 126.01H140.886ZM209.106 96.381V132.568H213.106V96.381H209.106ZM197.509 74.4907C199.512 74.4907 201.151 74.9054 202.502 75.6733C203.85 76.4394 205.023 77.6205 206 79.3259C207.994 82.8058 209.106 88.3526 209.106 96.381H213.106C213.106 88.1313 211.99 81.7329 209.471 77.3372C208.192 75.1048 206.537 73.3654 204.478 72.1956C202.423 71.0275 200.077 70.4907 197.509 70.4907V74.4907ZM185.911 96.381C185.911 88.3526 187.023 82.8058 189.017 79.3259C189.994 77.6205 191.167 76.4394 192.515 75.6733C193.866 74.9054 195.506 74.4907 197.509 74.4907V70.4907C194.94 70.4907 192.594 71.0275 190.539 72.1956C188.48 73.3654 186.825 75.1048 185.546 77.3372C183.027 81.7329 181.911 88.1313 181.911 96.381H185.911ZM185.911 132.568V96.381H181.911V132.568H185.911ZM197.509 154.341C195.506 154.341 193.865 153.926 192.514 153.16C191.165 152.394 189.992 151.216 189.015 149.518C187.022 146.053 185.911 140.536 185.911 132.568H181.911C181.911 140.761 183.028 147.131 185.548 151.512C186.827 153.737 188.482 155.472 190.54 156.639C192.595 157.804 194.94 158.341 197.509 158.341V154.341ZM209.106 132.568C209.106 140.536 207.995 146.053 206.002 149.518C205.025 151.216 203.852 152.394 202.503 153.16C201.152 153.926 199.512 154.341 197.509 154.341V158.341C200.077 158.341 202.422 157.804 204.477 156.639C206.535 155.472 208.19 153.737 209.469 151.512C211.989 147.131 213.106 140.761 213.106 132.568H209.106ZM304.771 181.051V3.3963H300.771V181.051H304.771ZM372.515 179.051H302.771V183.051H372.515V179.051ZM421.152 136.55C421.152 151.234 417.102 161.719 409.263 168.582C401.371 175.492 389.278 179.051 372.515 179.051V183.051C389.744 183.051 402.97 179.408 411.898 171.592C420.88 163.728 425.152 151.963 425.152 136.55H421.152ZM421.152 127.649V136.55H425.152V127.649H421.152ZM392.482 91.3081C402.323 93.4678 409.416 97.4179 414.073 103.25C418.731 109.085 421.152 117.056 421.152 127.649H425.152C425.152 116.461 422.591 107.509 417.199 100.755C411.804 93.9977 403.776 89.6915 393.339 87.4011L392.482 91.3081ZM390.91 86.7782V89.3546H394.91V86.7782H390.91ZM416.698 51.7625C416.698 61.3662 414.538 68.6303 410.535 73.9531C406.542 79.2632 400.547 82.8656 392.438 84.8347L393.382 88.7217C402.153 86.5919 409.051 82.5822 413.732 76.3571C418.404 70.1446 420.698 61.9502 420.698 51.7625H416.698ZM416.698 44.1504V51.7625H420.698V44.1504H416.698ZM370.405 5.3963C386.482 5.3963 397.999 8.66962 405.482 14.9818C412.895 21.2355 416.698 30.7746 416.698 44.1504H420.698C420.698 30.0054 416.647 19.1675 408.061 11.9243C399.544 4.73965 386.914 1.3963 370.405 1.3963V5.3963ZM302.771 5.3963H370.405V1.3963H302.771V5.3963ZM343.445 77.6528H362.082V73.6528H343.445V77.6528ZM341.445 35.3672V75.6528H345.445V35.3672H341.445ZM362.082 33.3672H343.445V37.3672H362.082V33.3672ZM380.493 50.9427C380.493 45.2818 379.17 40.7439 375.929 37.6646C372.71 34.6071 367.994 33.3672 362.082 33.3672V37.3672C367.541 37.3672 371.03 38.5279 373.174 40.5647C375.295 42.5797 376.493 45.8296 376.493 50.9427H380.493ZM380.493 60.1944V50.9427H376.493V60.1944H380.493ZM362.082 77.6528C367.941 77.6528 372.648 76.4104 375.877 73.3777C379.132 70.3195 380.493 65.8141 380.493 60.1944H376.493C376.493 65.2315 375.274 68.4554 373.138 70.4622C370.975 72.4945 367.477 73.6528 362.082 73.6528V77.6528ZM343.445 151.08H363.137V147.08H343.445V151.08ZM341.445 148.963V149.08H345.445V148.963H341.445ZM341.445 102.705V148.963H345.445V102.705H341.445ZM363.137 100.705H343.445V104.705H363.137V100.705ZM382.368 120.271C382.368 113.924 380.937 108.913 377.569 105.513C374.197 102.11 369.264 100.705 363.137 100.705V104.705C368.732 104.705 372.414 105.994 374.728 108.329C377.045 110.668 378.368 114.44 378.368 120.271H382.368ZM382.368 131.163V120.271H378.368V131.163H382.368ZM363.137 151.08C369.338 151.08 374.28 149.609 377.634 146.119C380.973 142.645 382.368 137.555 382.368 131.163H378.368C378.368 137.067 377.068 140.936 374.75 143.347C372.449 145.741 368.775 147.08 363.137 147.08V151.08ZM599.688 129.64V99.1918H595.688V129.64H599.688ZM632.735 180.808C621.721 180.808 613.623 176.688 608.175 168.47C602.632 160.107 599.688 147.282 599.688 129.64H595.688C595.688 147.6 598.662 161.358 604.841 170.68C611.115 180.144 620.541 184.808 632.735 184.808V180.808ZM667.783 153.305C664.449 162.321 660.274 169.162 654.714 173.757C649.197 178.316 642.14 180.808 632.735 180.808V184.808C642.906 184.808 650.911 182.089 657.262 176.84C663.571 171.626 668.069 164.064 671.535 154.693L667.783 153.305ZM672.92 153.056L670.342 152.119L668.976 155.879L671.555 156.816L672.92 153.056ZM668.14 181.142C668.362 176.27 670.165 167.816 674.14 155.553L670.335 154.319C666.339 166.649 664.391 175.527 664.144 180.96L668.14 181.142ZM705.41 179.051H666.142V183.051H705.41V179.051ZM703.41 3.3963V181.051H707.41V3.3963H703.41ZM665.322 5.3963H705.41V1.3963H665.322V5.3963ZM667.322 35.8356V3.3963H663.322V35.8356H667.322ZM673.785 73.1507C669.036 58.8015 667.322 48.8257 667.322 35.8356H663.322C663.322 49.3122 665.124 59.7135 669.987 74.4074L673.785 73.1507ZM670.201 76.8564L672.78 75.5682L670.992 71.9899L668.413 73.2781L670.201 76.8564ZM632.501 48.0241C641.588 48.0241 648.592 50.561 654.152 55.1882C659.754 59.8498 664.047 66.7629 667.435 75.7714L671.179 74.3631C667.652 64.9855 663.036 57.3769 656.711 52.1135C650.344 46.8157 642.403 44.0241 632.501 44.0241V48.0241ZM599.688 99.1918C599.688 81.5506 602.632 68.7226 608.148 60.3586C613.57 52.1378 621.611 48.0241 632.501 48.0241V44.0241C620.417 44.0241 611.05 48.6936 604.809 58.1563C598.663 67.476 595.688 81.2318 595.688 99.1918H599.688ZM667.204 127.649V101.534H663.204V127.649H667.204ZM667.204 127.767V127.649H663.204V127.767H667.204ZM650.552 157.873C653.3 157.873 655.802 157.19 657.983 155.779C660.154 154.375 661.899 152.319 663.254 149.73C665.938 144.607 667.204 137.196 667.204 127.767H663.204C663.204 136.957 661.95 143.6 659.711 147.874C658.606 149.985 657.288 151.464 655.81 152.42C654.343 153.37 652.611 153.873 650.552 153.873V157.873ZM635.893 131.982C635.893 140.113 636.951 146.481 639.292 150.883C640.479 153.115 642.02 154.887 643.956 156.093C645.898 157.304 648.121 157.873 650.552 157.873V153.873C648.764 153.873 647.295 153.461 646.072 152.699C644.843 151.933 643.747 150.74 642.824 149.005C640.945 145.473 639.893 139.896 639.893 131.982H635.893ZM635.893 97.2009V131.982H639.893V97.2009H635.893ZM650.67 71.0764C648.19 71.0764 645.931 71.6409 643.964 72.8547C642 74.066 640.448 75.8494 639.26 78.1006C636.919 82.5351 635.893 88.9648 635.893 97.2009H639.893C639.893 89.1589 640.919 83.5263 642.797 79.9681C643.719 78.2229 644.819 77.0273 646.064 76.2588C647.306 75.4927 648.812 75.0764 650.67 75.0764V71.0764ZM667.204 101.534C667.204 92.1077 665.968 84.6195 663.324 79.4166C661.99 76.7898 660.266 74.6862 658.108 73.2422C655.936 71.7891 653.432 71.0764 650.67 71.0764V75.0764C652.713 75.0764 654.429 75.5933 655.883 76.5667C657.352 77.549 658.661 79.0685 659.758 81.2285C661.979 85.5993 663.204 92.3399 663.204 101.534H667.204ZM760.743 135.027V124.37H756.743V135.027H760.743ZM773.512 154.575C768.992 154.575 765.985 153.068 763.998 150.162C761.906 147.102 760.743 142.205 760.743 135.027H756.743C756.743 142.488 757.924 148.365 760.696 152.42C763.574 156.628 767.951 158.575 773.512 158.575V154.575ZM786.047 133.452C785.816 142.169 784.338 147.451 782.177 150.52C780.134 153.42 777.309 154.575 773.512 154.575V158.575C778.271 158.575 782.479 157.037 785.447 152.823C788.297 148.777 789.808 142.523 790.046 133.558L786.047 133.452ZM826.215 135.144L788.237 131.514L787.856 135.496L825.835 139.126L826.215 135.144ZM773.035 186.213C789.042 186.273 802.518 182.426 812.169 174.232C821.859 166.004 827.422 153.625 828.024 137.208L824.026 137.062C823.456 152.616 818.234 163.835 809.58 171.182C800.887 178.564 788.458 182.271 773.05 182.213L773.035 186.213ZM717.241 126.244C717.241 145.405 722.005 160.458 731.532 170.73C741.083 181.026 755.133 186.213 773.043 186.213V182.213C755.905 182.213 743.054 177.27 734.465 168.009C725.853 158.724 721.241 144.792 721.241 126.244H717.241ZM717.241 103.29V126.244H721.241V103.29H717.241ZM774.215 42.6187C755.842 42.6187 741.499 47.89 731.771 58.3176C722.065 68.7218 717.241 83.9527 717.241 103.29H721.241C721.241 84.5677 725.911 70.4627 734.696 61.0462C743.459 51.6529 756.603 46.6187 774.215 46.6187V42.6187ZM828.963 99.543C828.963 81.6338 824.707 67.3291 815.547 57.4987C806.363 47.6422 792.564 42.6187 774.215 42.6187V46.6187C791.852 46.6187 804.427 51.4323 812.62 60.2255C820.838 69.0447 824.963 82.2022 824.963 99.543H828.963ZM828.017 124.434C828.728 116.617 828.963 106.125 828.963 99.543H824.963C824.963 106.077 824.728 116.431 824.033 124.072L828.017 124.434ZM758.86 126.253H826.025V122.253H758.86V126.253ZM760.156 125.785L760.273 125.668L757.446 122.838L757.329 122.955L760.156 125.785ZM760.743 100.597V95.5612H756.743V100.597H760.743ZM786.64 98.597H758.743V102.597H786.64V98.597ZM784.64 91.4624V100.597H788.64V91.4624H784.64ZM773.16 74.2565C777.169 74.2565 779.863 75.572 781.653 78.0976C783.541 80.7601 784.64 85.0632 784.64 91.4624H788.64C788.64 84.7454 787.512 79.4455 784.916 75.7841C782.223 71.9858 778.177 70.2565 773.16 70.2565V74.2565ZM760.625 95.4441C760.625 87.9799 761.815 82.6251 763.944 79.1962C765.978 75.9193 768.952 74.2565 773.16 74.2565V70.2565C767.639 70.2565 763.346 72.5754 760.545 77.0863C757.839 81.4451 756.625 87.6842 756.625 95.4441H760.625ZM760.156 94.1465L760.039 94.0294L757.212 96.8589L757.329 96.976L760.156 94.1465ZM836.163 144.266L874.259 138.645L873.675 134.688L835.579 140.309L836.163 144.266ZM835.754 144.288H835.871V140.288H835.754V144.288ZM886.861 182.33C870.681 182.33 858.399 178.945 850.207 172.376C842.096 165.871 837.698 156 837.754 142.296L833.754 142.279C833.694 156.915 838.438 168.065 847.705 175.497C856.89 182.863 870.219 186.33 886.861 186.33V182.33ZM935.615 145.098C935.615 156.496 931.363 165.702 923.302 172.107C915.182 178.558 902.988 182.33 886.861 182.33V186.33C903.554 186.33 916.737 182.431 925.79 175.239C934.901 168 939.615 157.59 939.615 145.098H935.615ZM907.265 106.115C914.167 109.739 921.235 113.815 926.6 119.818C931.902 125.749 935.615 133.649 935.615 145.098H939.615C939.615 132.657 935.534 123.81 929.583 117.152C923.695 110.566 916.052 106.21 909.124 102.573L907.265 106.115ZM893.322 98.8574L907.271 106.118L909.118 102.57L895.169 95.3093L893.322 98.8574ZM873.725 78.2288C873.725 82.2938 875.093 85.7169 878.327 89.0127C881.453 92.2001 886.332 95.2775 893.334 98.8635L895.157 95.3032C888.21 91.7456 883.828 88.909 881.182 86.2116C878.642 83.6226 877.725 81.1903 877.725 78.2288H873.725ZM885.688 68.1482C882.349 68.1482 879.367 68.9476 877.176 70.6913C874.925 72.4821 873.725 75.1021 873.725 78.2288H877.725C877.725 76.2026 878.459 74.7823 879.667 73.8211C880.933 72.8127 882.933 72.1482 885.688 72.1482V68.1482ZM899.41 89.1542C899.529 82.2087 898.663 76.9655 896.4 73.4199C894.005 69.6671 890.279 68.1482 885.688 68.1482V72.1482C889.303 72.1482 891.555 73.2643 893.028 75.5719C894.633 78.0867 895.526 82.3294 895.41 89.0857L899.41 89.1542ZM934.175 81.9862L897.135 87.139L897.686 91.1009L934.726 85.948L934.175 81.9862ZM885.454 46.9697C900.822 46.9697 912.562 50.0944 920.422 56.1697C928.191 62.1753 932.451 71.2849 932.451 83.9671H936.451C936.451 70.2997 931.802 59.9106 922.868 53.0049C914.024 46.1689 901.266 42.9697 885.454 42.9697V46.9697ZM839.395 83.85C839.395 71.8631 843.427 62.7616 850.994 56.6073C858.626 50.3999 870.125 46.9697 885.454 46.9697V42.9697C869.603 42.9697 857.073 46.5075 848.47 53.5041C839.803 60.5539 835.395 70.8926 835.395 83.85H839.395ZM864.849 119.221C851.003 111.613 839.395 100.426 839.395 83.85H835.395C835.395 102.641 848.637 114.876 862.923 122.727L864.849 119.221ZM878.793 126.83L864.844 119.218L862.928 122.729L876.877 130.341L878.793 126.83ZM899.176 149.548C899.176 145.138 897.667 141.355 894.292 137.709C891 134.152 885.926 130.717 878.792 126.83L876.878 130.342C883.927 134.183 888.524 137.366 891.356 140.426C894.106 143.396 895.176 146.229 895.176 149.548H899.176ZM887.329 160.8C890.77 160.8 893.78 159.89 895.944 157.879C898.13 155.847 899.176 152.948 899.176 149.548H895.176C895.176 152.121 894.405 153.848 893.221 154.949C892.014 156.071 890.101 156.8 887.329 156.8V160.8ZM871.967 136.635C871.848 144.207 872.904 150.194 875.421 154.347C878.042 158.671 882.121 160.8 887.329 160.8V156.8C883.395 156.8 880.675 155.299 878.842 152.274C876.905 149.079 875.851 143.999 875.967 136.698L871.967 136.635ZM947.103 5.97256V35.9526H951.103V5.97256H947.103ZM990.012 3.97256H949.103V7.97256H990.012V3.97256ZM992.012 35.9526V5.97256H988.012V35.9526H992.012ZM949.103 37.9526H990.012V33.9526H949.103V37.9526ZM947.572 47.7806V181.051H951.572V47.7806H947.572ZM989.66 45.7806H949.572V49.7806H989.66V45.7806ZM991.66 181.051V47.7806H987.66V181.051H991.66ZM949.572 183.051H989.66V179.051H949.572V183.051ZM1070.52 148.938C1079.93 150.7 1090.01 152.959 1097.77 158.336C1105.35 163.595 1110.86 171.954 1110.86 186.438H1114.86C1114.86 170.708 1108.76 161.091 1100.05 155.049C1091.51 149.125 1080.61 146.758 1071.26 145.007L1070.52 148.938ZM1069.36 148.27L1069.48 148.387L1072.31 145.558L1072.19 145.441L1069.36 148.27ZM1051.77 145.307L1070.4 148.821L1071.15 144.89L1052.51 141.377L1051.77 145.307ZM1028.34 133.036C1028.34 134.378 1028.58 135.762 1029.45 137.079C1030.29 138.364 1031.6 139.388 1033.34 140.277C1036.75 142.021 1042.47 143.554 1051.77 145.307L1052.51 141.377C1043.17 139.616 1037.99 138.163 1035.16 136.716C1033.78 136.01 1033.12 135.387 1032.79 134.882C1032.48 134.409 1032.34 133.862 1032.34 133.036H1028.34ZM1034.98 126.185C1033.1 126.684 1031.44 127.376 1030.23 128.498C1028.93 129.708 1028.34 131.256 1028.34 133.036H1032.34C1032.34 132.24 1032.56 131.798 1032.96 131.427C1033.45 130.967 1034.37 130.488 1036.01 130.05L1034.98 126.185ZM1055.54 128.46C1048.18 128.46 1041.67 127.656 1036 126.182L1034.99 130.053C1041.04 131.625 1047.89 132.46 1055.54 132.46V128.46ZM1104.06 87.5978C1104.06 101.146 1099.76 111.243 1091.77 117.997C1083.72 124.798 1071.62 128.46 1055.54 128.46V132.46C1072.16 132.46 1085.32 128.685 1094.35 121.053C1103.44 113.372 1108.06 102.039 1108.06 87.5978H1104.06ZM1082.29 51.4922C1089.45 54.5659 1094.86 59.136 1098.49 65.0989C1102.13 71.0748 1104.06 78.5717 1104.06 87.5978H1108.06C1108.06 78.0036 1106 69.7493 1101.9 63.0188C1097.8 56.2753 1091.72 51.1839 1083.87 47.8166L1082.29 51.4922ZM1108.33 37.006C1098.3 37.9381 1091.53 38.9471 1087.31 40.6745C1085.15 41.5558 1083.46 42.7047 1082.37 44.3169C1081.26 45.959 1080.95 47.827 1081.09 49.7945L1085.08 49.5143C1084.98 48.1442 1085.22 47.2455 1085.68 46.5563C1086.17 45.8374 1087.08 45.0905 1088.82 44.3762C1092.4 42.9124 1098.57 41.9305 1108.7 40.9888L1108.33 37.006ZM1103.36 5.57452L1106.53 39.1849L1110.51 38.8099L1107.34 5.19953L1103.36 5.57452ZM1074.79 45.8824C1071.16 34.5418 1072.14 25.4877 1077.04 19.0734C1081.98 12.6086 1091.29 8.30131 1105.48 7.38285L1105.22 3.3912C1090.46 4.3465 1079.79 8.88098 1073.86 16.6449C1067.89 24.4594 1067.11 35.0212 1070.98 47.1025L1074.79 45.8824ZM1055.65 46.8529C1061.89 46.8529 1067.48 47.3156 1072.44 48.4428L1073.33 44.5421C1067.98 43.3271 1062.07 42.8529 1055.65 42.8529V46.8529ZM1006.78 87.5978C1006.78 74.1151 1011.1 64.0481 1019.15 57.3067C1027.26 50.5158 1039.45 46.8529 1055.65 46.8529V42.8529C1038.92 42.8529 1025.67 46.6264 1016.58 54.24C1007.43 61.903 1002.78 73.2085 1002.78 87.5978H1006.78ZM1024.09 121.482C1012.84 114.756 1006.78 103.642 1006.78 87.5978H1002.78C1002.78 104.813 1009.39 117.354 1022.04 124.916L1024.09 121.482ZM1025.07 125.776V123.199H1021.07V125.776H1025.07ZM1005.02 145.918C1005.02 141.06 1006.61 137.073 1009.59 134.044C1012.6 130.987 1017.18 128.756 1023.39 127.75L1022.75 123.801C1015.95 124.903 1010.5 127.415 1006.74 131.238C1002.95 135.09 1001.02 140.12 1001.02 145.918H1005.02ZM1022.17 167.953C1016.96 165.86 1012.68 163.151 1009.71 159.609C1006.78 156.105 1005.02 151.676 1005.02 145.918H1001.02C1001.02 152.574 1003.08 157.924 1006.65 162.179C1010.18 166.394 1015.11 169.424 1020.68 171.664L1022.17 167.953ZM1023.43 172.854V169.809H1019.43V172.854H1023.43ZM1000.33 198.266C1000.33 191.594 1001.85 186.566 1005.1 182.834C1008.37 179.083 1013.66 176.354 1021.8 174.819L1021.06 170.888C1012.43 172.515 1006.17 175.525 1002.09 180.205C997.987 184.905 996.335 191.003 996.335 198.266H1000.33ZM1052.84 226.832C1034.66 226.832 1021.45 224.403 1012.85 219.618C1008.58 217.245 1005.48 214.311 1003.43 210.825C1001.39 207.338 1000.33 203.184 1000.33 198.266H996.335C996.335 203.771 997.522 208.649 999.983 212.848C1002.45 217.047 1006.11 220.452 1010.9 223.114C1020.41 228.4 1034.45 230.832 1052.84 230.832V226.832ZM1110.86 186.438C1110.86 201.054 1106.1 210.952 1096.8 217.314C1087.32 223.79 1072.82 226.832 1052.84 226.832V230.832C1073.07 230.832 1088.57 227.784 1099.05 220.616C1109.7 213.336 1114.86 202.036 1114.86 186.438H1110.86ZM1081.92 190.654C1081.92 188.515 1081.58 186.518 1080.62 184.712C1079.66 182.891 1078.17 181.432 1076.13 180.224C1072.19 177.881 1065.9 176.32 1056.55 174.859L1055.93 178.811C1065.33 180.279 1070.89 181.762 1074.09 183.664C1075.63 184.579 1076.54 185.542 1077.09 186.58C1077.64 187.632 1077.92 188.929 1077.92 190.654H1081.92ZM1079.8 192.654H1079.92V188.654H1079.8V192.654ZM1055.07 203.545C1064 203.545 1070.55 202.797 1074.92 200.872C1077.15 199.89 1078.92 198.558 1080.11 196.776C1081.3 194.988 1081.8 192.917 1081.8 190.654H1077.8C1077.8 192.314 1077.44 193.566 1076.78 194.556C1076.11 195.552 1075.03 196.453 1073.31 197.212C1069.77 198.772 1063.95 199.545 1055.07 199.545V203.545ZM1024.7 187.726C1024.7 190.479 1025.2 192.972 1026.43 195.127C1027.67 197.301 1029.57 198.966 1032.09 200.207C1037 202.626 1044.51 203.545 1055.07 203.545V199.545C1044.53 199.545 1037.86 198.591 1033.86 196.619C1031.92 195.664 1030.68 194.504 1029.9 193.142C1029.11 191.762 1028.7 190.01 1028.7 187.726H1024.7ZM1035.84 172.084C1031.99 173.822 1029.16 175.953 1027.31 178.624C1025.45 181.314 1024.7 184.372 1024.7 187.726H1028.7C1028.7 184.991 1029.3 182.779 1030.6 180.902C1031.92 179.005 1034.07 177.272 1037.49 175.731L1035.84 172.084ZM1037.6 171.907H1036.66V175.907H1037.6V171.907ZM1056.55 174.859L1037.91 171.932L1037.29 175.883L1055.93 178.811L1056.55 174.859ZM1042.4 87.5978C1042.4 94.9299 1043.27 100.413 1045.39 104.109C1046.48 106.006 1047.9 107.449 1049.69 108.401C1051.47 109.345 1053.48 109.741 1055.65 109.741V105.741C1053.96 105.741 1052.63 105.433 1051.57 104.87C1050.53 104.314 1049.62 103.445 1048.86 102.12C1047.29 99.3759 1046.4 94.7873 1046.4 87.5978H1042.4ZM1055.54 65.5721C1053.38 65.5721 1051.39 65.9788 1049.63 66.9346C1047.86 67.8966 1046.45 69.3479 1045.37 71.2385C1043.27 74.9298 1042.4 80.3763 1042.4 87.5978H1046.4C1046.4 80.532 1047.29 75.9656 1048.85 73.2159C1049.61 71.886 1050.51 71.0098 1051.54 70.4494C1052.58 69.8828 1053.88 69.5721 1055.54 69.5721V65.5721ZM1068.55 87.5978C1068.55 80.3289 1067.71 74.8812 1065.65 71.2033C1064.59 69.3159 1063.19 67.8712 1061.42 66.9165C1059.67 65.969 1057.69 65.5721 1055.54 65.5721V69.5721C1057.2 69.5721 1058.49 69.8779 1059.52 70.4346C1060.54 70.984 1061.42 71.8448 1062.16 73.1634C1063.7 75.8971 1064.55 80.4624 1064.55 87.5978H1068.55ZM1055.65 109.741C1057.83 109.741 1059.83 109.336 1061.59 108.371C1063.35 107.397 1064.73 105.929 1065.76 104.026C1067.78 100.323 1068.55 94.852 1068.55 87.5978H1064.55C1064.55 94.7481 1063.75 99.3486 1062.25 102.116C1061.52 103.448 1060.66 104.314 1059.66 104.867C1058.64 105.428 1057.34 105.741 1055.65 105.741V109.741ZM1119.41 47.7805V181.051H1123.41V47.7805H1119.41ZM1160.33 45.7805H1121.41V49.7805H1160.33V45.7805ZM1156.22 74.95C1160.84 62.6438 1162.21 56.1991 1162.33 47.8095L1158.33 47.7515C1158.21 55.523 1157 61.4919 1152.48 73.5444L1156.22 74.95ZM1157.67 73.6123L1155.21 72.4412L1153.49 76.0532L1155.95 77.2243L1157.67 73.6123ZM1196.31 44.0239C1186.97 44.0239 1178.89 46.473 1171.98 51.6062C1165.11 56.7182 1159.53 64.3882 1154.98 74.6054L1158.64 76.2312C1163 66.4227 1168.21 59.3955 1174.37 54.8167C1180.5 50.2591 1187.72 48.0239 1196.31 48.0239V44.0239ZM1228.44 77.4092C1228.44 66.6444 1225.88 58.2091 1220.38 52.4713C1214.86 46.7177 1206.72 44.0239 1196.31 44.0239V48.0239C1206.07 48.0239 1212.99 50.5414 1217.49 55.2398C1222.01 59.954 1224.44 67.2114 1224.44 77.4092H1228.44ZM1228.44 181.051V77.4092H1224.44V181.051H1228.44ZM1186.35 183.051H1226.44V179.051H1186.35V183.051ZM1184.35 86.5437V181.051H1188.35V86.5437H1184.35ZM1176.97 76.1301C1179.58 76.1301 1181.28 76.9847 1182.39 78.4671C1183.59 80.0512 1184.35 82.6485 1184.35 86.5437H1188.35C1188.35 82.2412 1187.53 78.6318 1185.59 76.0585C1183.57 73.3835 1180.58 72.1301 1176.97 72.1301V76.1301ZM1163.73 105.164C1163.73 95.6508 1165.13 88.2361 1167.55 83.2783C1169.94 78.3758 1173.17 76.1301 1176.97 76.1301V72.1301C1171.16 72.1301 1166.77 75.7399 1163.95 81.5237C1161.16 87.2521 1159.73 95.3543 1159.73 105.164H1163.73ZM1163.73 181.051V105.164H1159.73V181.051H1163.73ZM1121.65 183.051H1161.73V179.051H1121.65V183.051ZM1121.41 183.051H1121.65V179.051H1121.41V183.051ZM1286.34 181.051V76.7068H1282.34V181.051H1286.34ZM1324.43 179.051H1284.34V183.051H1324.43V179.051ZM1322.43 76.8239V181.051H1326.43V76.8239H1322.43ZM1344.24 74.8239H1324.43V78.8239H1344.24V74.8239ZM1342.24 47.8979V76.8239H1346.24V47.8979H1342.24ZM1322.79 49.8979H1344.24V45.8979H1322.79V49.8979ZM1344.57 26.8139C1339.14 27.193 1334.88 27.5352 1331.61 28.109C1328.37 28.6777 1325.77 29.5215 1323.91 31.1329C1321.96 32.8194 1321.11 35.0868 1320.77 37.8157C1320.43 40.4815 1320.56 43.8553 1320.79 48.0097L1324.79 47.7861C1324.55 43.5671 1324.45 40.5585 1324.74 38.313C1325.01 36.1307 1325.6 34.9579 1326.53 34.1559C1327.54 33.2787 1329.24 32.5855 1332.3 32.0489C1335.33 31.5175 1339.38 31.1863 1344.85 30.8042L1344.57 26.8139ZM1339.09 0.368536L1342.72 29.0603L1346.69 28.5578L1343.06 -0.134029L1339.09 0.368536ZM1286.34 40.0516C1286.34 25.9829 1289.81 17.2819 1297.93 11.6732C1306.3 5.89388 1319.96 3.11031 1341.17 2.11506L1340.98 -1.88055C1319.76 -0.884943 1305.05 1.89418 1295.66 8.38208C1286.02 15.0405 1282.34 25.3113 1282.34 40.0516H1286.34ZM1286.34 47.7808V40.0516H1282.34V47.7808H1286.34ZM1270.39 49.7808H1284.34V45.7808H1270.39V49.7808ZM1272.39 76.7068V47.7808H1268.39V76.7068H1272.39ZM1284.34 74.7068H1270.39V78.7068H1284.34V74.7068ZM1348.34 102.939V126.01H1352.34V102.939H1348.34ZM1404.96 42.6187C1386.83 42.6187 1372.59 48.2998 1362.9 58.8564C1353.23 69.3874 1348.34 84.5089 1348.34 102.939H1352.34C1352.34 85.1825 1357.05 71.1438 1365.85 61.5613C1374.62 52.0044 1387.69 46.6187 1404.96 46.6187V42.6187ZM1461.58 102.939C1461.58 84.5661 1456.68 69.4459 1447.02 58.9014C1437.33 48.331 1423.09 42.6187 1404.96 42.6187V46.6187C1422.23 46.6187 1435.3 52.0317 1444.07 61.6041C1452.87 71.2024 1457.58 85.2425 1457.58 102.939H1461.58ZM1461.58 126.01V102.939H1457.58V126.01H1461.58ZM1404.96 186.33C1422.98 186.33 1437.22 180.585 1446.93 170.005C1456.62 159.449 1461.58 144.332 1461.58 126.01H1457.58C1457.58 143.64 1452.81 157.683 1443.98 167.3C1435.18 176.892 1422.1 182.33 1404.96 182.33V186.33ZM1348.34 126.01C1348.34 144.275 1353.3 159.391 1362.99 169.96C1372.7 180.554 1386.93 186.33 1404.96 186.33V182.33C1387.82 182.33 1374.74 176.864 1365.93 167.257C1357.1 157.624 1352.34 143.58 1352.34 126.01H1348.34ZM1416.56 96.381V132.568H1420.56V96.381H1416.56ZM1404.96 74.4907C1406.96 74.4907 1408.6 74.9054 1409.95 75.6733C1411.3 76.4394 1412.47 77.6205 1413.45 79.3259C1415.44 82.8058 1416.56 88.3526 1416.56 96.381H1420.56C1420.56 88.1313 1419.44 81.7329 1416.92 77.3372C1415.64 75.1048 1413.99 73.3654 1411.93 72.1956C1409.87 71.0275 1407.53 70.4907 1404.96 70.4907V74.4907ZM1393.36 96.381C1393.36 88.3526 1394.47 82.8058 1396.47 79.3259C1397.44 77.6205 1398.62 76.4394 1399.97 75.6733C1401.32 74.9054 1402.96 74.4907 1404.96 74.4907V70.4907C1402.39 70.4907 1400.04 71.0275 1397.99 72.1956C1395.93 73.3654 1394.28 75.1048 1393 77.3372C1390.48 81.7329 1389.36 88.1313 1389.36 96.381H1393.36ZM1393.36 132.568V96.381H1389.36V132.568H1393.36ZM1404.96 154.341C1402.96 154.341 1401.32 153.926 1399.96 153.16C1398.62 152.394 1397.44 151.216 1396.47 149.518C1394.47 146.053 1393.36 140.536 1393.36 132.568H1389.36C1389.36 140.761 1390.48 147.131 1393 151.512C1394.28 153.737 1395.93 155.472 1397.99 156.639C1400.05 157.804 1402.39 158.341 1404.96 158.341V154.341ZM1416.56 132.568C1416.56 140.536 1415.45 146.053 1413.45 149.518C1412.48 151.216 1411.3 152.394 1409.95 153.16C1408.6 153.926 1406.96 154.341 1404.96 154.341V158.341C1407.53 158.341 1409.87 157.804 1411.93 156.639C1413.99 155.472 1415.64 153.737 1416.92 151.512C1419.44 147.131 1420.56 140.761 1420.56 132.568H1416.56ZM1475.3 180.934V47.7808H1471.3V180.934H1475.3ZM1513.39 178.934H1473.3V182.934H1513.39V178.934ZM1511.39 123.316V180.934H1515.39V123.316H1511.39ZM1552.23 78.6977C1543.68 79.5193 1536.82 80.4911 1531.38 82.0504C1525.91 83.616 1521.72 85.8154 1518.63 89.1917C1515.55 92.5692 1513.76 96.9282 1512.72 102.472C1511.69 107.991 1511.39 114.837 1511.39 123.316H1515.39C1515.39 114.874 1515.69 108.34 1516.65 103.206C1517.61 98.0959 1519.18 94.528 1521.59 91.8891C1524 89.2489 1527.43 87.3421 1532.48 85.8958C1537.55 84.4432 1544.1 83.4973 1552.61 82.6794L1552.23 78.6977ZM1546.21 43.7907L1550.43 80.9144L1554.41 80.4627L1550.19 43.339L1546.21 43.7907ZM1510.6 77.1405C1516.54 65.3878 1521.63 58.1404 1527.35 53.5066C1533.01 48.9205 1539.46 46.7502 1548.46 45.5472L1547.93 41.5825C1538.53 42.8388 1531.27 45.1772 1524.83 50.399C1518.44 55.5731 1513.05 63.4328 1507.03 75.3362L1510.6 77.1405ZM1505.52 76.5245L1507.75 77.9298L1509.88 74.5469L1507.65 73.1416L1505.52 76.5245ZM1510.68 47.8665C1511.02 55.6593 1509.72 61.7952 1504.73 74.0806L1508.44 75.5855C1513.53 63.0437 1515.05 56.2976 1514.68 47.6951L1510.68 47.8665ZM1473.3 49.7808H1512.68V45.7808H1473.3V49.7808ZM1629.73 156.825L1632.43 155.888L1631.12 152.11L1628.42 153.047L1629.73 156.825ZM1637.17 181.006C1637.05 175.536 1635.09 166.63 1630.97 154.303L1627.18 155.569C1631.27 167.835 1633.06 176.261 1633.17 181.097L1637.17 181.006ZM1596.02 183.051H1635.17V179.051H1596.02V183.051ZM1594.02 3.3963V181.051H1598.02V3.3963H1594.02ZM1636.11 1.3963H1596.02V5.3963H1636.11V1.3963ZM1638.11 35.9527V3.3963H1634.11V35.9527H1638.11ZM1631.33 74.5246C1636.19 59.8437 1638.11 49.441 1638.11 35.9527H1634.11C1634.11 48.9311 1632.28 58.9055 1627.53 73.2678L1631.33 74.5246ZM1632.9 73.3952L1630.32 72.107L1628.53 75.6854L1631.11 76.9736L1632.9 73.3952ZM1668.81 44.1412C1658.97 44.1412 1651.05 46.9348 1644.69 52.2307C1638.37 57.4913 1633.72 65.0958 1630.14 74.4698L1633.87 75.8989C1637.32 66.8868 1641.64 59.9697 1647.25 55.3053C1652.81 50.6761 1659.79 48.1412 1668.81 48.1412V44.1412ZM1705.63 99.3089C1705.63 81.3489 1702.65 67.5931 1696.5 58.2734C1690.26 48.8107 1680.9 44.1412 1668.81 44.1412V48.1412C1679.7 48.1412 1687.74 52.2549 1693.17 60.4758C1698.68 68.8397 1701.63 81.6677 1701.63 99.3089H1705.63ZM1705.63 129.757V99.3089H1701.63V129.757H1705.63ZM1668.58 184.925C1680.77 184.925 1690.2 180.262 1696.47 170.797C1702.65 161.475 1705.63 147.717 1705.63 129.757H1701.63C1701.63 147.399 1698.68 160.225 1693.14 168.587C1687.69 176.805 1679.59 180.925 1668.58 180.925V184.925ZM1629.89 154.799C1633.3 164.178 1637.8 171.743 1644.11 176.957C1650.46 182.205 1658.46 184.925 1668.58 184.925V180.925C1659.23 180.925 1652.18 178.434 1646.66 173.874C1641.1 169.28 1636.93 162.44 1633.65 153.433L1629.89 154.799ZM1629.77 153.999V154.116H1633.77V153.999H1629.77ZM1661.54 97.2009V131.865H1665.54V97.2009H1661.54ZM1650.76 75.0764C1652.55 75.0764 1654.03 75.488 1655.26 76.2556C1656.5 77.0267 1657.61 78.228 1658.55 79.9782C1660.46 83.5391 1661.54 89.1735 1661.54 97.2009H1665.54C1665.54 88.9501 1664.45 82.5223 1662.08 78.0905C1660.88 75.8443 1659.32 74.0666 1657.37 72.8579C1655.42 71.6456 1653.19 71.0764 1650.76 71.0764V75.0764ZM1638.34 101.534C1638.34 92.2738 1639.54 85.5333 1641.73 81.1781C1642.82 79.0274 1644.11 77.5222 1645.56 76.5509C1647.01 75.5884 1648.71 75.0764 1650.76 75.0764V71.0764C1648 71.0764 1645.51 71.7794 1643.34 73.2249C1641.19 74.6618 1639.48 76.7577 1638.16 79.3792C1635.55 84.5684 1634.34 92.0567 1634.34 101.534H1638.34ZM1638.34 127.649V101.534H1634.34V127.649H1638.34ZM1650.76 153.756C1648.7 153.756 1646.99 153.253 1645.55 152.309C1644.1 151.359 1642.81 149.885 1641.73 147.775C1639.54 143.498 1638.34 136.851 1638.34 127.649H1634.34C1634.34 137.068 1635.55 144.475 1638.17 149.596C1639.49 152.184 1641.21 154.246 1643.36 155.656C1645.52 157.072 1648.01 157.756 1650.76 157.756V153.756ZM1661.54 131.865C1661.54 139.78 1660.49 145.353 1658.6 148.883C1657.67 150.616 1656.56 151.809 1655.32 152.577C1654.08 153.342 1652.58 153.756 1650.76 153.756V157.756C1653.22 157.756 1655.46 157.189 1657.42 155.981C1659.37 154.776 1660.93 153.005 1662.12 150.771C1664.48 146.367 1665.54 139.995 1665.54 131.865H1661.54ZM1719.58 180.934V47.7808H1715.58V180.934H1719.58ZM1757.66 178.934H1717.58V182.934H1757.66V178.934ZM1755.66 123.316V180.934H1759.66V123.316H1755.66ZM1796.51 78.6977C1787.96 79.5193 1781.1 80.4911 1775.66 82.0504C1770.19 83.616 1766 85.8154 1762.91 89.1917C1759.83 92.5692 1758.03 96.9282 1757 102.472C1755.97 107.991 1755.66 114.837 1755.66 123.316H1759.66C1759.66 114.874 1759.97 108.34 1760.93 103.206C1761.89 98.0959 1763.46 94.528 1765.87 91.8891C1768.28 89.2489 1771.71 87.3421 1776.76 85.8958C1781.83 84.4432 1788.38 83.4973 1796.89 82.6794L1796.51 78.6977ZM1790.49 43.7907L1794.71 80.9144L1798.68 80.4627L1794.46 43.339L1790.49 43.7907ZM1754.88 77.1405C1760.82 65.3878 1765.91 58.1404 1771.63 53.5066C1777.29 48.9205 1783.74 46.7502 1792.74 45.5472L1792.21 41.5825C1782.81 42.8388 1775.55 45.1772 1769.11 50.399C1762.72 55.5731 1757.32 63.4328 1751.31 75.3362L1754.88 77.1405ZM1749.8 76.5245L1752.02 77.9298L1754.16 74.5469L1751.93 73.1416L1749.8 76.5245ZM1754.96 47.8665C1755.3 55.6593 1754 61.7952 1749.01 74.0806L1752.72 75.5855C1757.81 63.0437 1759.33 56.2976 1758.96 47.6951L1754.96 47.8665ZM1717.58 49.7808H1756.96V45.7808H1717.58V49.7808ZM1799.15 149.432V150.369H1803.15V149.432H1799.15ZM1843.88 102.767C1833.78 105.523 1822.61 109.18 1813.96 116.153C1805.2 123.223 1799.15 133.604 1799.15 149.432H1803.15C1803.15 134.811 1808.65 125.576 1816.47 119.266C1824.41 112.86 1834.87 109.373 1844.93 106.625L1843.88 102.767ZM1863.9 97.0348L1843.85 102.773L1844.95 106.619L1865 100.88L1863.9 97.0348ZM1862.45 85.2558V98.9576H1866.45V85.2558H1862.45ZM1854.84 74.3737C1857.74 74.3737 1859.45 75.2362 1860.54 76.7093C1861.73 78.3157 1862.45 81.0117 1862.45 85.2558H1866.45C1866.45 80.7166 1865.71 76.9716 1863.76 74.3328C1861.71 71.5607 1858.62 70.3737 1854.84 70.3737V74.3737ZM1845.58 98.0789C1845.29 88.1647 1846.17 82.1457 1847.85 78.6583C1848.66 76.9721 1849.63 75.9497 1850.69 75.3257C1851.77 74.6936 1853.12 74.3737 1854.84 74.3737V70.3737C1852.63 70.3737 1850.53 70.7858 1848.67 71.8738C1846.8 72.9698 1845.34 74.6556 1844.24 76.9218C1842.11 81.3392 1841.29 88.2023 1841.58 98.1967L1845.58 98.0789ZM1803.72 97.5572L1843.45 100.134L1843.71 96.142L1803.98 93.5656L1803.72 97.5572ZM1855.31 42.7359C1837.3 42.7359 1823.69 47.2336 1814.66 56.3104C1805.64 65.3915 1801.55 78.709 1801.85 95.5968L1805.85 95.526C1805.56 79.2718 1809.5 67.1766 1817.5 59.1304C1825.5 51.0799 1837.91 46.7359 1855.31 46.7359V42.7359ZM1906.42 85.49C1906.42 71.5099 1901.92 60.6916 1893.04 53.4213C1884.24 46.2081 1871.43 42.7359 1855.31 42.7359V46.7359C1870.94 46.7359 1882.69 50.1146 1890.51 56.5154C1898.25 62.859 1902.42 72.4178 1902.42 85.49H1906.42ZM1906.42 148.378V85.49H1902.42V148.378H1906.42ZM1914.53 154.576C1912.48 154.547 1910.94 154.445 1909.77 154.233C1908.61 154.02 1907.97 153.723 1907.59 153.419C1906.92 152.882 1906.42 151.798 1906.42 148.378H1902.42C1902.42 151.749 1902.8 154.706 1905.09 156.541C1906.19 157.422 1907.55 157.894 1909.06 158.168C1910.56 158.442 1912.36 158.546 1914.47 158.575L1914.53 154.576ZM1912.26 183.589L1916.48 156.888L1912.52 156.263L1908.3 182.964L1912.26 183.589ZM1901.37 186.33C1904.35 186.33 1908.14 185.841 1910.74 185.222L1909.82 181.331C1907.5 181.883 1904.02 182.33 1901.37 182.33V186.33ZM1871.49 154.201C1870.01 165.223 1871.04 173.496 1876.11 178.932C1881.15 184.326 1889.62 186.33 1901.37 186.33V182.33C1889.8 182.33 1882.86 180.294 1879.04 176.203C1875.26 172.153 1874.01 165.494 1875.46 154.734L1871.49 154.201ZM1870.54 155.967L1873.12 156.435L1873.83 152.5L1871.25 152.031L1870.54 155.967ZM1833.85 186.33C1844.56 186.33 1853.17 183.697 1859.72 178.256C1866.26 172.825 1870.5 164.792 1872.85 154.442L1868.94 153.556C1866.72 163.349 1862.82 170.481 1857.16 175.18C1851.52 179.869 1843.9 182.33 1833.85 182.33V186.33ZM1799.27 150.486C1799.27 161.166 1802.34 170.166 1808.33 176.51C1814.33 182.87 1823.04 186.33 1833.85 186.33V182.33C1823.92 182.33 1816.34 179.174 1811.24 173.765C1806.12 168.339 1803.27 160.416 1803.27 150.486H1799.27ZM1799.74 151.783L1799.85 151.9L1802.68 149.071L1802.57 148.954L1799.74 151.783ZM1862.57 121.911V132.802H1866.57V121.911H1862.57ZM1856.88 126.617L1865.21 123.806L1863.93 120.016L1855.6 122.827L1856.88 126.617ZM1843.59 142.405C1843.59 138.174 1845.04 134.936 1847.36 132.414C1849.71 129.851 1853.05 127.949 1856.9 126.611L1855.59 122.832C1851.35 124.305 1847.36 126.502 1844.41 129.706C1841.43 132.952 1839.59 137.151 1839.59 142.405H1843.59ZM1843.59 143.576V142.405H1839.59V143.576H1843.59ZM1850.27 152.585C1847.84 152.585 1846.32 151.842 1845.34 150.605C1844.29 149.279 1843.59 147.054 1843.59 143.576H1839.59C1839.59 147.477 1840.36 150.756 1842.21 153.09C1844.13 155.512 1846.94 156.585 1850.27 156.585V152.585ZM1862.57 132.919C1862.57 139.17 1861.24 144.167 1859.04 147.533C1856.88 150.835 1853.9 152.585 1850.27 152.585V156.585C1855.42 156.585 1859.59 154.001 1862.39 149.72C1865.14 145.504 1866.57 139.668 1866.57 132.919H1862.57ZM1862.57 132.802V132.919H1866.57V132.802H1862.57ZM1926.23 181.051V47.7805H1922.23V181.051H1926.23ZM1924.46 179.051H1924.23V183.051H1924.46V179.051ZM1964.55 179.051H1924.46V183.051H1964.55V179.051ZM1962.55 105.164V181.051H1966.55V105.164H1962.55ZM1979.79 72.1301C1973.98 72.1301 1969.59 75.7399 1966.77 81.5237C1963.97 87.2521 1962.55 95.3543 1962.55 105.164H1966.55C1966.55 95.6508 1967.94 88.2361 1970.36 83.2783C1972.76 78.3758 1975.99 76.1301 1979.79 76.1301V72.1301ZM1991.17 86.5437C1991.17 82.2412 1990.34 78.6318 1988.4 76.0585C1986.39 73.3835 1983.39 72.1301 1979.79 72.1301V76.1301C1982.4 76.1301 1984.09 76.9847 1985.21 78.4671C1986.4 80.0512 1987.17 82.6486 1987.17 86.5437H1991.17ZM1991.17 181.051V86.5437H1987.17V181.051H1991.17ZM2029.25 179.051H1989.17V183.051H2029.25V179.051ZM2027.25 77.4092V181.051H2031.25V77.4092H2027.25ZM1999.13 48.0239C2008.88 48.0239 2015.8 50.5414 2020.31 55.2398C2024.83 59.954 2027.25 67.2114 2027.25 77.4092H2031.25C2031.25 66.6444 2028.7 58.2091 2023.2 52.4713C2017.68 46.7177 2009.54 44.0239 1999.13 44.0239V48.0239ZM1961.45 76.2312C1965.82 66.4227 1971.03 59.3955 1977.19 54.8167C1983.32 50.2591 1990.54 48.0239 1999.13 48.0239V44.0239C1989.79 44.0239 1981.71 46.473 1974.8 51.6062C1967.92 56.7182 1962.34 64.3882 1957.8 74.6054L1961.45 76.2312ZM1956.31 76.0532L1958.77 77.2243L1960.49 73.6123L1958.02 72.4412L1956.31 76.0532ZM1961.14 47.7515C1961.03 55.523 1959.82 61.4919 1955.29 73.5444L1959.04 74.95C1963.66 62.6438 1965.02 56.1991 1965.14 47.8095L1961.14 47.7515ZM1924.23 49.7805H1963.14V45.7805H1924.23V49.7805ZM2040.5 99.1918V129.64H2044.5V99.1918H2040.5ZM2077.31 44.0241C2065.23 44.0241 2055.86 48.6936 2049.62 58.1563C2043.47 67.476 2040.5 81.2318 2040.5 99.1918H2044.5C2044.5 81.5506 2047.44 68.7226 2052.96 60.3587C2058.38 52.1378 2066.42 48.0241 2077.31 48.0241V44.0241ZM2115.99 74.3631C2112.46 64.9855 2107.85 57.3769 2101.52 52.1136C2095.16 46.8157 2087.21 44.0241 2077.31 44.0241V48.0241C2086.4 48.0241 2093.4 50.561 2098.96 55.1882C2104.57 59.8498 2108.86 66.7629 2112.25 75.7714L2115.99 74.3631ZM2115.8 71.9899L2113.22 73.2781L2115.01 76.8565L2117.59 75.5682L2115.8 71.9899ZM2108.13 35.8356C2108.13 49.3122 2109.94 59.7134 2114.8 74.4074L2118.6 73.1507C2113.85 58.8015 2112.13 48.8257 2112.13 35.8356H2108.13ZM2108.13 3.3963V35.8356H2112.13V3.3963H2108.13ZM2150.22 1.3963H2110.13V5.3963H2150.22V1.3963ZM2152.22 181.051V3.3963H2148.22V181.051H2152.22ZM2110.95 183.051H2150.22V179.051H2110.95V183.051ZM2115.15 154.319C2111.15 166.649 2109.2 175.527 2108.96 180.96L2112.95 181.142C2113.17 176.27 2114.98 167.816 2118.95 155.553L2115.15 154.319ZM2113.79 155.879L2116.37 156.816L2117.73 153.056L2115.15 152.119L2113.79 155.879ZM2077.55 184.808C2087.72 184.808 2095.72 182.089 2102.07 176.84C2108.38 171.626 2112.88 164.064 2116.35 154.693L2112.59 153.305C2109.26 162.321 2105.08 169.162 2099.53 173.757C2094.01 178.316 2086.95 180.808 2077.55 180.808V184.808ZM2040.5 129.64C2040.5 147.6 2043.47 161.358 2049.65 170.68C2055.93 180.144 2065.35 184.808 2077.55 184.808V180.808C2066.53 180.808 2058.43 176.688 2052.99 168.47C2047.44 160.107 2044.5 147.282 2044.5 129.64H2040.5ZM2108.02 101.534V127.649H2112.02V101.534H2108.02ZM2095.48 75.0764C2097.52 75.0764 2099.24 75.5933 2100.69 76.5666C2102.16 77.549 2103.47 79.0685 2104.57 81.2285C2106.79 85.5993 2108.02 92.3399 2108.02 101.534H2112.02C2112.02 92.1077 2110.78 84.6195 2108.14 79.4166C2106.8 76.7898 2105.08 74.6862 2102.92 73.2422C2100.75 71.7891 2098.24 71.0764 2095.48 71.0764V75.0764ZM2084.7 97.2009C2084.7 89.1589 2085.73 83.5263 2087.61 79.9681C2088.53 78.2229 2089.63 77.0274 2090.88 76.2588C2092.12 75.4927 2093.62 75.0764 2095.48 75.0764V71.0764C2093 71.0764 2090.74 71.6409 2088.77 72.8547C2086.81 74.066 2085.26 75.8494 2084.07 78.1006C2081.73 82.5351 2080.7 88.9648 2080.7 97.2009H2084.7ZM2084.7 131.982V97.2009H2080.7V131.982H2084.7ZM2095.36 153.873C2093.57 153.873 2092.11 153.461 2090.88 152.699C2089.65 151.933 2088.56 150.74 2087.63 149.005C2085.76 145.473 2084.7 139.896 2084.7 131.982H2080.7C2080.7 140.113 2081.76 146.481 2084.1 150.883C2085.29 153.115 2086.83 154.887 2088.77 156.093C2090.71 157.304 2092.93 157.873 2095.36 157.873V153.873ZM2108.02 127.767C2108.02 136.957 2106.76 143.6 2104.52 147.874C2103.42 149.985 2102.1 151.464 2100.62 152.42C2099.15 153.37 2097.42 153.873 2095.36 153.873V157.873C2098.11 157.873 2100.61 157.19 2102.79 155.779C2104.96 154.375 2106.71 152.319 2108.07 149.73C2110.75 144.607 2112.02 137.196 2112.02 127.767H2108.02ZM2108.02 127.649V127.767H2112.02V127.649H2108.02ZM2162.59 144.266L2200.68 138.645L2200.1 134.688L2162 140.309L2162.59 144.266ZM2162.18 144.288H2162.29V140.288H2162.18V144.288ZM2213.28 182.33C2197.1 182.33 2184.82 178.945 2176.63 172.376C2168.52 165.871 2164.12 156 2164.18 142.296L2160.18 142.279C2160.12 156.915 2164.86 168.065 2174.13 175.497C2183.31 182.863 2196.64 186.33 2213.28 186.33V182.33ZM2262.04 145.098C2262.04 156.496 2257.79 165.702 2249.73 172.107C2241.61 178.558 2229.41 182.33 2213.28 182.33V186.33C2229.98 186.33 2243.16 182.431 2252.21 175.239C2261.32 168 2266.04 157.59 2266.04 145.098H2262.04ZM2233.69 106.115C2240.59 109.739 2247.66 113.815 2253.02 119.818C2258.33 125.749 2262.04 133.649 2262.04 145.098H2266.04C2266.04 132.657 2261.96 123.81 2256.01 117.152C2250.12 110.566 2242.48 106.21 2235.55 102.573L2233.69 106.115ZM2219.75 98.8574L2233.69 106.118L2235.54 102.57L2221.59 95.3093L2219.75 98.8574ZM2200.15 78.2288C2200.15 82.2938 2201.52 85.7169 2204.75 89.0127C2207.88 92.2001 2212.75 95.2775 2219.76 98.8635L2221.58 95.3032C2214.63 91.7456 2210.25 88.909 2207.61 86.2116C2205.07 83.6226 2204.15 81.1903 2204.15 78.2288H2200.15ZM2212.11 68.1482C2208.77 68.1482 2205.79 68.9476 2203.6 70.6913C2201.35 72.4821 2200.15 75.102 2200.15 78.2288H2204.15C2204.15 76.2027 2204.88 74.7824 2206.09 73.8211C2207.36 72.8127 2209.36 72.1482 2212.11 72.1482V68.1482ZM2225.83 89.1541C2225.95 82.2087 2225.09 76.9655 2222.82 73.4199C2220.43 69.6671 2216.7 68.1482 2212.11 68.1482V72.1482C2215.73 72.1482 2217.98 73.2643 2219.45 75.5719C2221.06 78.0867 2221.95 82.3294 2221.83 89.0857L2225.83 89.1541ZM2260.6 81.9862L2223.56 87.139L2224.11 91.1009L2261.15 85.948L2260.6 81.9862ZM2211.88 46.9697C2227.25 46.9697 2238.99 50.0944 2246.85 56.1697C2254.61 62.1753 2258.87 71.2849 2258.87 83.9671H2262.87C2262.87 70.2997 2258.23 59.9106 2249.29 53.0049C2240.45 46.1689 2227.69 42.9697 2211.88 42.9697V46.9697ZM2165.82 83.85C2165.82 71.8631 2169.85 62.7616 2177.42 56.6073C2185.05 50.3999 2196.55 46.9697 2211.88 46.9697V42.9697C2196.03 42.9697 2183.5 46.5075 2174.89 53.5041C2166.23 60.5539 2161.82 70.8926 2161.82 83.85H2165.82ZM2191.27 119.221C2177.43 111.613 2165.82 100.426 2165.82 83.85H2161.82C2161.82 102.641 2175.06 114.876 2189.35 122.727L2191.27 119.221ZM2205.22 126.83L2191.27 119.218L2189.35 122.729L2203.3 130.341L2205.22 126.83ZM2225.6 149.548C2225.6 145.138 2224.09 141.355 2220.72 137.709C2217.42 134.152 2212.35 130.717 2205.22 126.83L2203.3 130.342C2210.35 134.183 2214.95 137.366 2217.78 140.426C2220.53 143.396 2221.6 146.229 2221.6 149.548H2225.6ZM2213.75 160.8C2217.19 160.8 2220.2 159.89 2222.37 157.879C2224.55 155.847 2225.6 152.948 2225.6 149.548H2221.6C2221.6 152.121 2220.83 153.848 2219.64 154.949C2218.44 156.071 2216.52 156.8 2213.75 156.8V160.8ZM2198.39 136.635C2198.27 144.207 2199.33 150.194 2201.84 154.347C2204.47 158.671 2208.54 160.8 2213.75 160.8V156.8C2209.82 156.8 2207.1 155.299 2205.27 152.274C2203.33 149.079 2202.28 143.999 2202.39 136.698L2198.39 136.635ZM2305.76 102.939V126.01H2309.76V102.939H2305.76ZM2362.38 42.6187C2344.25 42.6187 2330.01 48.2998 2320.32 58.8564C2310.66 69.3874 2305.76 84.5089 2305.76 102.939H2309.76C2309.76 85.1825 2314.48 71.1438 2323.27 61.5613C2332.04 52.0044 2345.11 46.6187 2362.38 46.6187V42.6187ZM2419.01 102.939C2419.01 84.5661 2414.11 69.4459 2404.44 58.9014C2394.76 48.331 2380.52 42.6187 2362.38 42.6187V46.6187C2379.65 46.6187 2392.72 52.0317 2401.5 61.6041C2410.29 71.2024 2415.01 85.2425 2415.01 102.939H2419.01ZM2419.01 126.01V102.939H2415.01V126.01H2419.01ZM2362.38 186.33C2380.41 186.33 2394.64 180.585 2404.36 170.005C2414.05 159.449 2419.01 144.332 2419.01 126.01H2415.01C2415.01 143.64 2410.24 157.683 2401.41 167.3C2392.6 176.892 2379.53 182.33 2362.38 182.33V186.33ZM2305.76 126.01C2305.76 144.275 2310.72 159.391 2320.41 169.96C2330.12 180.554 2344.36 186.33 2362.38 186.33V182.33C2345.24 182.33 2332.17 176.864 2323.36 167.257C2314.53 157.624 2309.76 143.58 2309.76 126.01H2305.76ZM2373.98 96.381V132.568H2377.98V96.381H2373.98ZM2362.38 74.4907C2364.39 74.4907 2366.03 74.9054 2367.38 75.6733C2368.73 76.4394 2369.9 77.6205 2370.88 79.3259C2372.87 82.8058 2373.98 88.3526 2373.98 96.381H2377.98C2377.98 88.1313 2376.86 81.7329 2374.35 77.3372C2373.07 75.1048 2371.41 73.3654 2369.35 72.1956C2367.3 71.0275 2364.95 70.4907 2362.38 70.4907V74.4907ZM2350.79 96.381C2350.79 88.3526 2351.9 82.8058 2353.89 79.3259C2354.87 77.6204 2356.04 76.4394 2357.39 75.6733C2358.74 74.9054 2360.38 74.4907 2362.38 74.4907V70.4907C2359.82 70.4907 2357.47 71.0275 2355.41 72.1956C2353.36 73.3654 2351.7 75.1048 2350.42 77.3372C2347.9 81.7329 2346.79 88.1313 2346.79 96.381H2350.79ZM2350.79 132.568V96.381H2346.79V132.568H2350.79ZM2362.38 154.341C2360.38 154.341 2358.74 153.926 2357.39 153.16C2356.04 152.394 2354.87 151.216 2353.89 149.518C2351.9 146.053 2350.79 140.536 2350.79 132.568H2346.79C2346.79 140.761 2347.9 147.131 2350.42 151.512C2351.7 153.737 2353.36 155.472 2355.42 156.639C2357.47 157.804 2359.82 158.341 2362.38 158.341V154.341ZM2373.98 132.568C2373.98 140.536 2372.87 146.053 2370.88 149.518C2369.9 151.216 2368.73 152.394 2367.38 153.16C2366.03 153.926 2364.39 154.341 2362.38 154.341V158.341C2364.95 158.341 2367.3 157.804 2369.35 156.639C2371.41 155.472 2373.06 153.737 2374.34 151.512C2376.86 147.131 2377.98 140.761 2377.98 132.568H2373.98ZM2432.84 181.051V47.7805H2428.84V181.051H2432.84ZM2431.07 179.051H2430.84V183.051H2431.07V179.051ZM2471.16 179.051H2431.07V183.051H2471.16V179.051ZM2469.16 105.164V181.051H2473.16V105.164H2469.16ZM2486.4 72.1301C2480.59 72.1301 2476.2 75.7399 2473.38 81.5237C2470.58 87.2521 2469.16 95.3544 2469.16 105.164H2473.16C2473.16 95.6508 2474.55 88.2361 2476.97 83.2783C2479.37 78.3758 2482.6 76.1301 2486.4 76.1301V72.1301ZM2497.78 86.5437C2497.78 82.2412 2496.96 78.6318 2495.01 76.0585C2493 73.3835 2490 72.1301 2486.4 72.1301V76.1301C2489.01 76.1301 2490.7 76.9847 2491.82 78.4671C2493.02 80.0512 2493.78 82.6486 2493.78 86.5437H2497.78ZM2497.78 181.051V86.5437H2493.78V181.051H2497.78ZM2535.86 179.051H2495.78V183.051H2535.86V179.051ZM2533.86 77.4092V181.051H2537.86V77.4092H2533.86ZM2505.74 48.0239C2515.5 48.0239 2522.41 50.5414 2526.92 55.2398C2531.44 59.954 2533.86 67.2114 2533.86 77.4092H2537.86C2537.86 66.6444 2535.31 58.2091 2529.81 52.4713C2524.29 46.7177 2516.15 44.0239 2505.74 44.0239V48.0239ZM2468.07 76.2312C2472.43 66.4227 2477.64 59.3955 2483.8 54.8167C2489.93 50.2591 2497.15 48.0239 2505.74 48.0239V44.0239C2496.4 44.0239 2488.32 46.473 2481.41 51.6062C2474.53 56.7182 2468.96 64.3882 2464.41 74.6054L2468.07 76.2312ZM2462.92 76.0533L2465.38 77.2244L2467.1 73.6123L2464.64 72.4412L2462.92 76.0533ZM2467.75 47.7515C2467.64 55.523 2466.43 61.4919 2461.9 73.5444L2465.65 74.95C2470.27 62.6438 2471.63 56.1991 2471.75 47.8095L2467.75 47.7515ZM2430.84 49.7805H2469.75V45.7805H2430.84V49.7805ZM2580.52 149.432V150.369H2584.52V149.432H2580.52ZM2625.24 102.767C2615.15 105.523 2603.97 109.18 2595.33 116.153C2586.56 123.223 2580.52 133.604 2580.52 149.432H2584.52C2584.52 134.811 2590.02 125.576 2597.84 119.266C2605.78 112.86 2616.23 109.373 2626.3 106.625L2625.24 102.767ZM2645.26 97.0348L2625.22 102.773L2626.32 106.619L2646.36 100.88L2645.26 97.0348ZM2643.81 85.2558V98.9576H2647.81V85.2558H2643.81ZM2636.2 74.3737C2639.1 74.3737 2640.82 75.2362 2641.9 76.7093C2643.09 78.3157 2643.81 81.0117 2643.81 85.2558H2647.81C2647.81 80.7166 2647.07 76.9716 2645.12 74.3328C2643.07 71.5607 2639.98 70.3737 2636.2 70.3737V74.3737ZM2626.95 98.0789C2626.66 88.1647 2627.53 82.1457 2629.21 78.6583C2630.03 76.9721 2630.99 75.9497 2632.06 75.3257C2633.14 74.6936 2634.48 74.3737 2636.2 74.3737V70.3737C2633.99 70.3737 2631.9 70.7858 2630.04 71.8738C2628.17 72.9698 2626.7 74.6556 2625.61 76.9218C2623.48 81.3392 2622.66 88.2023 2622.95 98.1967L2626.95 98.0789ZM2585.08 97.5572L2624.82 100.134L2625.08 96.142L2585.34 93.5656L2585.08 97.5572ZM2636.67 42.7359C2618.67 42.7359 2605.05 47.2336 2596.03 56.3104C2587 65.3915 2582.91 78.709 2583.21 95.5968L2587.21 95.526C2586.93 79.2718 2590.87 67.1766 2598.87 59.1304C2606.87 51.0799 2619.28 46.7359 2636.67 46.7359V42.7359ZM2687.78 85.49C2687.78 71.5099 2683.28 60.6916 2674.41 53.4213C2665.6 46.2081 2652.8 42.7359 2636.67 42.7359V46.7359C2652.31 46.7359 2664.06 50.1146 2671.87 56.5154C2679.61 62.859 2683.78 72.4178 2683.78 85.49H2687.78ZM2687.78 148.378V85.49H2683.78V148.378H2687.78ZM2695.89 154.576C2693.84 154.547 2692.31 154.445 2691.14 154.233C2689.97 154.02 2689.33 153.723 2688.95 153.419C2688.29 152.882 2687.78 151.798 2687.78 148.378H2683.78C2683.78 151.749 2684.16 154.706 2686.45 156.541C2687.55 157.422 2688.92 157.894 2690.42 158.168C2691.92 158.442 2693.73 158.546 2695.84 158.575L2695.89 154.576ZM2693.62 183.589L2697.84 156.888L2693.89 156.263L2689.67 182.964L2693.62 183.589ZM2682.74 186.33C2685.72 186.33 2689.51 185.841 2692.11 185.222L2691.18 181.331C2688.86 181.883 2685.38 182.33 2682.74 182.33V186.33ZM2652.86 154.201C2651.37 165.223 2652.41 173.496 2657.48 178.932C2662.51 184.326 2670.98 186.33 2682.74 186.33V182.33C2671.16 182.33 2664.22 180.294 2660.4 176.203C2656.63 172.153 2655.37 165.494 2656.82 154.734L2652.86 154.201ZM2651.9 155.967L2654.48 156.435L2655.2 152.5L2652.62 152.031L2651.9 155.967ZM2615.22 186.33C2625.92 186.33 2634.54 183.697 2641.08 178.256C2647.62 172.825 2651.86 164.792 2654.21 154.442L2650.31 153.556C2648.09 163.349 2644.18 170.481 2638.53 175.18C2632.89 179.869 2625.26 182.33 2615.22 182.33V186.33ZM2580.63 150.486C2580.63 161.166 2583.71 170.166 2589.69 176.51C2595.69 182.87 2604.41 186.33 2615.22 186.33V182.33C2605.29 182.33 2597.71 179.174 2592.6 173.765C2587.48 168.339 2584.63 160.416 2584.63 150.486H2580.63ZM2581.1 151.783L2581.22 151.9L2584.05 149.071L2583.93 148.954L2581.1 151.783ZM2643.93 121.911V132.802H2647.93V121.911H2643.93ZM2638.25 126.617L2646.57 123.806L2645.29 120.016L2636.97 122.827L2638.25 126.617ZM2624.96 142.405C2624.96 138.174 2626.4 134.936 2628.72 132.414C2631.08 129.851 2634.42 127.949 2638.27 126.611L2636.95 122.832C2632.71 124.305 2628.72 126.502 2625.78 129.706C2622.79 132.952 2620.96 137.151 2620.96 142.405H2624.96ZM2624.96 143.576V142.405H2620.96V143.576H2624.96ZM2631.63 152.585C2629.21 152.585 2627.69 151.842 2626.71 150.605C2625.66 149.279 2624.96 147.054 2624.96 143.576H2620.96C2620.96 147.477 2621.72 150.756 2623.57 153.09C2625.49 155.512 2628.31 156.585 2631.63 156.585V152.585ZM2643.93 132.919C2643.93 139.17 2642.6 144.167 2640.4 147.533C2638.25 150.835 2635.27 152.585 2631.63 152.585V156.585C2636.79 156.585 2640.96 154.001 2643.75 149.72C2646.51 145.504 2647.93 139.668 2647.93 132.919H2643.93ZM2643.93 132.802V132.919H2647.93V132.802H2643.93ZM2743.11 181.051V47.7805H2739.11V181.051H2743.11ZM2741.35 179.051H2741.11V183.051H2741.35V179.051ZM2781.43 179.051H2741.35V183.051H2781.43V179.051ZM2779.43 103.525V181.051H2783.43V103.525H2779.43ZM2794.91 72.1301C2789.62 72.1301 2785.69 75.652 2783.19 81.0991C2780.71 86.5195 2779.43 94.1937 2779.43 103.525H2783.43C2783.43 94.4692 2784.68 87.4462 2786.83 82.7659C2788.96 78.1124 2791.77 76.1301 2794.91 76.1301V72.1301ZM2805.47 86.4266C2805.47 82.3431 2804.67 78.8136 2802.91 76.2462C2801.07 73.5802 2798.31 72.1301 2794.91 72.1301V76.1301C2797.03 76.1301 2798.54 76.9637 2799.61 78.5136C2800.74 80.1621 2801.47 82.7809 2801.47 86.4266H2805.47ZM2805.47 181.051V86.4266H2801.47V181.051H2805.47ZM2843.56 179.051H2803.47V183.051H2843.56V179.051ZM2841.56 103.407V181.051H2845.56V103.407H2841.56ZM2857.04 72.2472C2851.68 72.2472 2847.75 75.799 2845.27 81.2333C2842.8 86.6386 2841.56 94.2535 2841.56 103.407H2845.56C2845.56 94.5266 2846.78 87.5614 2848.91 82.8953C2851.03 78.2582 2853.84 76.2472 2857.04 76.2472V72.2472ZM2867.59 86.4266C2867.59 82.3061 2866.83 78.7909 2865.07 76.2524C2863.22 73.6002 2860.44 72.2472 2857.04 72.2472V76.2472C2859.26 76.2472 2860.76 77.0608 2861.78 78.5367C2862.89 80.1263 2863.59 82.7008 2863.59 86.4266H2867.59ZM2867.59 181.051V86.4266H2863.59V181.051H2867.59ZM2905.68 179.051H2865.59V183.051H2905.68V179.051ZM2903.68 79.0487V181.051H2907.68V79.0487H2903.68ZM2877.32 48.141C2886.62 48.141 2893.06 50.6937 2897.23 55.5534C2901.46 60.477 2903.68 68.1379 2903.68 79.0487H2907.68C2907.68 67.7088 2905.39 58.9158 2900.27 52.9482C2895.09 46.9167 2887.35 44.141 2877.32 44.141V48.141ZM2839.65 77.7366C2844.15 67.3689 2849.28 59.9947 2855.37 55.2087C2861.42 50.4559 2868.56 48.141 2877.32 48.141V44.141C2867.79 44.141 2859.75 46.6861 2852.9 52.0633C2846.1 57.4072 2840.63 65.4329 2835.98 76.1449L2839.65 77.7366ZM2834.64 77.873L2837.1 78.8099L2838.53 75.0716L2836.06 74.1347L2834.64 77.873ZM2814.49 48.0239C2822.59 48.0239 2828.12 50.747 2831.23 55.2558C2834.39 59.8264 2835.38 66.682 2833.4 75.5683L2837.3 76.4394C2839.42 66.9395 2838.54 58.8051 2834.52 52.9823C2830.46 47.0977 2823.5 44.0239 2814.49 44.0239V48.0239ZM2778.14 76.3919C2784.12 65.6524 2789.59 58.5811 2795.34 54.1851C2801.01 49.8447 2807.07 48.0239 2814.49 48.0239V44.0239C2806.31 44.0239 2799.36 46.0676 2792.91 51.0081C2786.52 55.8931 2780.73 63.519 2774.65 74.4448L2778.14 76.3919ZM2773.15 76.0364L2775.5 77.2075L2777.29 73.6291L2774.94 72.458L2773.15 76.0364ZM2778.15 47.8895C2778.47 53.8954 2777.32 59.7755 2772.17 73.5479L2775.92 74.9466C2781.1 61.0812 2782.52 54.5476 2782.14 47.6715L2778.15 47.8895ZM2741.11 49.7805H2780.14V45.7805H2741.11V49.7805ZM2918.69 5.97256V35.9526H2922.69V5.97256H2918.69ZM2961.6 3.97256H2920.69V7.97256H2961.6V3.97256ZM2963.6 35.9526V5.97256H2959.6V35.9526H2963.6ZM2920.69 37.9526H2961.6V33.9526H2920.69V37.9526ZM2919.16 47.7806V181.051H2923.16V47.7806H2919.16ZM2961.24 45.7806H2921.16V49.7806H2961.24V45.7806ZM2963.24 181.051V47.7806H2959.24V181.051H2963.24ZM2921.16 183.051H2961.24V179.051H2921.16V183.051ZM2973.61 144.266L3011.7 138.645L3011.12 134.688L2973.03 140.309L2973.61 144.266ZM2973.2 144.288H2973.32V140.288H2973.2V144.288ZM3024.31 182.33C3008.13 182.33 2995.84 178.945 2987.65 172.376C2979.54 165.871 2975.14 156 2975.2 142.296L2971.2 142.279C2971.14 156.915 2975.88 168.065 2985.15 175.497C2994.34 182.863 3007.67 186.33 3024.31 186.33V182.33ZM3073.06 145.098C3073.06 156.496 3068.81 165.702 3060.75 172.107C3052.63 178.558 3040.43 182.33 3024.31 182.33V186.33C3041 186.33 3054.18 182.431 3063.24 175.239C3072.35 168 3077.06 157.59 3077.06 145.098H3073.06ZM3044.71 106.115C3051.61 109.739 3058.68 113.815 3064.05 119.818C3069.35 125.749 3073.06 133.649 3073.06 145.098H3077.06C3077.06 132.657 3072.98 123.81 3067.03 117.152C3061.14 110.566 3053.5 106.21 3046.57 102.573L3044.71 106.115ZM3030.77 98.8574L3044.72 106.118L3046.56 102.57L3032.61 95.3093L3030.77 98.8574ZM3011.17 78.2288C3011.17 82.2938 3012.54 85.7169 3015.77 89.0127C3018.9 92.2001 3023.78 95.2775 3030.78 98.8635L3032.6 95.3032C3025.66 91.7456 3021.27 88.909 3018.63 86.2115C3016.09 83.6226 3015.17 81.1902 3015.17 78.2288H3011.17ZM3023.13 68.1482C3019.79 68.1482 3016.81 68.9475 3014.62 70.6913C3012.37 72.4821 3011.17 75.1021 3011.17 78.2288H3015.17C3015.17 76.2026 3015.9 74.7823 3017.11 73.8211C3018.38 72.8127 3020.38 72.1482 3023.13 72.1482V68.1482ZM3036.86 89.1541C3036.97 82.2087 3036.11 76.9655 3033.85 73.4199C3031.45 69.6671 3027.72 68.1482 3023.13 68.1482V72.1482C3026.75 72.1482 3029 73.2643 3030.47 75.5719C3032.08 78.0867 3032.97 82.3294 3032.86 89.0857L3036.86 89.1541ZM3071.62 81.9862L3034.58 87.139L3035.13 91.1009L3072.17 85.948L3071.62 81.9862ZM3022.9 46.9697C3038.27 46.9697 3050.01 50.0944 3057.87 56.1697C3065.64 62.1753 3069.9 71.2849 3069.9 83.9671H3073.9C3073.9 70.2997 3069.25 59.9106 3060.31 53.0049C3051.47 46.1689 3038.71 42.9697 3022.9 42.9697V46.9697ZM2976.84 83.85C2976.84 71.8632 2980.87 62.7617 2988.44 56.6073C2996.07 50.3999 3007.57 46.9697 3022.9 46.9697V42.9697C3007.05 42.9697 2994.52 46.5075 2985.92 53.5041C2977.25 60.5539 2972.84 70.8926 2972.84 83.85H2976.84ZM3002.29 119.221C2988.45 111.613 2976.84 100.426 2976.84 83.85H2972.84C2972.84 102.641 2986.08 114.876 3000.37 122.727L3002.29 119.221ZM3016.24 126.83L3002.29 119.218L3000.37 122.729L3014.32 130.341L3016.24 126.83ZM3036.62 149.548C3036.62 145.138 3035.11 141.355 3031.74 137.709C3028.45 134.152 3023.37 130.717 3016.24 126.83L3014.32 130.342C3021.37 134.183 3025.97 137.366 3028.8 140.426C3031.55 143.396 3032.62 146.229 3032.62 149.548H3036.62ZM3024.78 160.8C3028.22 160.8 3031.23 159.89 3033.39 157.879C3035.58 155.847 3036.62 152.948 3036.62 149.548H3032.62C3032.62 152.121 3031.85 153.848 3030.67 154.949C3029.46 156.071 3027.55 156.8 3024.78 156.8V160.8ZM3009.41 136.635C3009.29 144.207 3010.35 150.194 3012.87 154.347C3015.49 158.671 3019.57 160.8 3024.78 160.8V156.8C3020.84 156.8 3018.12 155.299 3016.29 152.274C3014.35 149.079 3013.3 143.999 3013.41 136.698L3009.41 136.635ZM3120.83 134.688L3082.74 140.309L3083.32 144.266L3121.42 138.645L3120.83 134.688ZM3134.49 156.8C3130.56 156.8 3127.84 155.299 3126 152.274C3124.07 149.079 3123.01 143.999 3123.13 136.698L3119.13 136.635C3119.01 144.207 3120.06 150.194 3122.58 154.347C3125.2 158.671 3129.28 160.8 3134.49 160.8V156.8ZM3142.34 149.548C3142.34 152.121 3141.56 153.848 3140.38 154.949C3139.17 156.071 3137.26 156.8 3134.49 156.8V160.8C3137.93 160.8 3140.94 159.89 3143.1 157.879C3145.29 155.847 3146.34 152.948 3146.34 149.548H3142.34ZM3124.04 130.342C3131.09 134.183 3135.68 137.366 3138.52 140.426C3141.27 143.396 3142.34 146.229 3142.34 149.548H3146.34C3146.34 145.138 3144.83 141.355 3141.45 137.709C3138.16 134.152 3133.09 130.717 3125.95 126.83L3124.04 130.342ZM3110.09 122.729L3124.04 130.341L3125.95 126.83L3112 119.218L3110.09 122.729ZM3082.56 83.85C3082.56 102.641 3095.8 114.876 3110.08 122.727L3112.01 119.221C3098.16 111.613 3086.56 100.426 3086.56 83.85H3082.56ZM3132.61 42.9697C3116.76 42.9697 3104.23 46.5075 3095.63 53.5041C3086.96 60.5539 3082.56 70.8926 3082.56 83.85H3086.56C3086.56 71.8632 3090.59 62.7617 3098.15 56.6073C3105.79 50.3999 3117.29 46.9697 3132.61 46.9697V42.9697ZM3183.61 83.9671C3183.61 70.2997 3178.96 59.9106 3170.03 53.0049C3161.18 46.1689 3148.43 42.9697 3132.61 42.9697V46.9697C3147.98 46.9697 3159.72 50.0944 3167.58 56.1697C3175.35 62.1753 3179.61 71.2849 3179.61 83.9671H3183.61ZM3144.85 91.1009L3181.89 85.948L3181.33 81.9862L3144.29 87.139L3144.85 91.1009ZM3132.85 72.1482C3136.46 72.1482 3138.72 73.2643 3140.19 75.5719C3141.79 78.0867 3142.69 82.3294 3142.57 89.0857L3146.57 89.1541C3146.69 82.2087 3145.82 76.9655 3143.56 73.4199C3141.16 69.6671 3137.44 68.1482 3132.85 68.1482V72.1482ZM3124.89 78.2288C3124.89 76.2026 3125.62 74.7823 3126.83 73.821C3128.09 72.8127 3130.09 72.1482 3132.85 72.1482V68.1482C3129.51 68.1482 3126.53 68.9476 3124.34 70.6913C3122.09 72.4821 3120.89 75.1021 3120.89 78.2288H3124.89ZM3142.32 95.3032C3135.37 91.7456 3130.99 88.909 3128.34 86.2116C3125.8 83.6227 3124.89 81.1903 3124.89 78.2288H3120.89C3120.89 82.2938 3122.25 85.7169 3125.49 89.0127C3128.61 92.2001 3133.49 95.2775 3140.49 98.8635L3142.32 95.3032ZM3156.28 102.57L3142.33 95.3093L3140.48 98.8574L3154.43 106.118L3156.28 102.57ZM3186.78 145.098C3186.78 132.657 3182.69 123.81 3176.74 117.152C3170.86 110.566 3163.21 106.21 3156.28 102.573L3154.42 106.115C3161.33 109.739 3168.4 113.815 3173.76 119.818C3179.06 125.749 3182.78 133.649 3182.78 145.098H3186.78ZM3134.02 186.33C3150.71 186.33 3163.9 182.431 3172.95 175.239C3182.06 168 3186.78 157.59 3186.78 145.098H3182.78C3182.78 156.496 3178.52 165.702 3170.46 172.107C3162.34 178.558 3150.15 182.33 3134.02 182.33V186.33ZM3080.91 142.279C3080.85 156.915 3085.6 168.065 3094.86 175.497C3104.05 182.863 3117.38 186.33 3134.02 186.33V182.33C3117.84 182.33 3105.56 178.945 3097.37 172.376C3089.26 165.871 3084.86 156 3084.91 142.296L3080.91 142.279ZM3083.03 140.288H3082.91V144.288H3083.03V140.288ZM3198.38 35.9526V5.97256H3194.38V35.9526H3198.38ZM3237.29 33.9526H3196.38V37.9526H3237.29V33.9526ZM3235.29 5.97256V35.9526H3239.29V5.97256H3235.29ZM3196.38 7.97256H3237.29V3.97256H3196.38V7.97256ZM3198.85 181.051V47.7806H3194.85V181.051H3198.85ZM3236.94 179.051H3196.85V183.051H3236.94V179.051ZM3234.94 47.7806V181.051H3238.94V47.7806H3234.94ZM3196.85 49.7806H3236.94V45.7806H3196.85V49.7806ZM3248.65 102.939V126.01H3252.65V102.939H3248.65ZM3305.28 42.6187C3287.15 42.6187 3272.91 48.2998 3263.22 58.8564C3253.55 69.3874 3248.65 84.5089 3248.65 102.939H3252.65C3252.65 85.1825 3257.37 71.1438 3266.16 61.5613C3274.93 52.0044 3288.01 46.6187 3305.28 46.6187V42.6187ZM3361.9 102.939C3361.9 84.5661 3357 69.4459 3347.34 58.9014C3337.65 48.331 3323.41 42.6187 3305.28 42.6187V46.6187C3322.54 46.6187 3335.61 52.0317 3344.39 61.6041C3353.18 71.2024 3357.9 85.2425 3357.9 102.939H3361.9ZM3361.9 126.01V102.939H3357.9V126.01H3361.9ZM3305.28 186.33C3323.3 186.33 3337.53 180.585 3347.25 170.005C3356.94 159.449 3361.9 144.332 3361.9 126.01H3357.9C3357.9 143.64 3353.13 157.683 3344.3 167.3C3335.49 176.892 3322.42 182.33 3305.28 182.33V186.33ZM3248.65 126.01C3248.65 144.275 3253.61 159.391 3263.3 169.96C3273.01 180.554 3287.25 186.33 3305.28 186.33V182.33C3288.13 182.33 3275.06 176.864 3266.25 167.257C3257.42 157.624 3252.65 143.58 3252.65 126.01H3248.65ZM3316.87 96.381V132.568H3320.87V96.381H3316.87ZM3305.28 74.4907C3307.28 74.4907 3308.92 74.9054 3310.27 75.6733C3311.62 76.4394 3312.79 77.6205 3313.77 79.3259C3315.76 82.8058 3316.87 88.3526 3316.87 96.381H3320.87C3320.87 88.1313 3319.76 81.7329 3317.24 77.3372C3315.96 75.1048 3314.3 73.3654 3312.25 72.1956C3310.19 71.0275 3307.84 70.4907 3305.28 70.4907V74.4907ZM3293.68 96.381C3293.68 88.3526 3294.79 82.8058 3296.78 79.3259C3297.76 77.6205 3298.93 76.4394 3300.28 75.6733C3301.63 74.9054 3303.27 74.4907 3305.28 74.4907V70.4907C3302.71 70.4907 3300.36 71.0275 3298.31 72.1956C3296.25 73.3654 3294.59 75.1048 3293.31 77.3372C3290.79 81.7329 3289.68 88.1313 3289.68 96.381H3293.68ZM3293.68 132.568V96.381H3289.68V132.568H3293.68ZM3305.28 154.341C3303.27 154.341 3301.63 153.926 3300.28 153.16C3298.93 152.394 3297.76 151.216 3296.78 149.518C3294.79 146.053 3293.68 140.536 3293.68 132.568H3289.68C3289.68 140.761 3290.79 147.131 3293.31 151.512C3294.59 153.737 3296.25 155.472 3298.31 156.639C3300.36 157.804 3302.71 158.341 3305.28 158.341V154.341ZM3316.87 132.568C3316.87 140.536 3315.76 146.053 3313.77 149.518C3312.79 151.216 3311.62 152.394 3310.27 153.16C3308.92 153.926 3307.28 154.341 3305.28 154.341V158.341C3307.84 158.341 3310.19 157.804 3312.24 156.639C3314.3 155.472 3315.96 153.737 3317.24 151.512C3319.76 147.131 3320.87 140.761 3320.87 132.568H3316.87ZM3375.73 181.051V47.7805H3371.73V181.051H3375.73ZM3373.96 179.051H3373.73V183.051H3373.96V179.051ZM3414.05 179.051H3373.96V183.051H3414.05V179.051ZM3412.05 105.164V181.051H3416.05V105.164H3412.05ZM3429.29 72.1301C3423.48 72.1301 3419.09 75.7399 3416.27 81.5237C3413.47 87.2521 3412.05 95.3544 3412.05 105.164H3416.05C3416.05 95.6508 3417.44 88.2361 3419.86 83.2783C3422.26 78.3758 3425.49 76.1301 3429.29 76.1301V72.1301ZM3440.67 86.5437C3440.67 82.2412 3439.85 78.6318 3437.91 76.0585C3435.89 73.3835 3432.89 72.1301 3429.29 72.1301V76.1301C3431.9 76.1301 3433.59 76.9847 3434.71 78.4671C3435.91 80.0512 3436.67 82.6485 3436.67 86.5437H3440.67ZM3440.67 181.051V86.5437H3436.67V181.051H3440.67ZM3478.76 179.051H3438.67V183.051H3478.76V179.051ZM3476.76 77.4092V181.051H3480.76V77.4092H3476.76ZM3448.63 48.0239C3458.39 48.0239 3465.31 50.5414 3469.81 55.2398C3474.33 59.954 3476.76 67.2114 3476.76 77.4092H3480.76C3480.76 66.6444 3478.2 58.2091 3472.7 52.4713C3467.18 46.7177 3459.04 44.0239 3448.63 44.0239V48.0239ZM3410.96 76.2312C3415.32 66.4227 3420.53 59.3955 3426.69 54.8167C3432.82 50.2591 3440.04 48.0239 3448.63 48.0239V44.0239C3439.29 44.0239 3431.21 46.473 3424.3 51.6062C3417.42 56.7182 3411.85 64.3882 3407.3 74.6054L3410.96 76.2312ZM3405.81 76.0533L3408.27 77.2244L3409.99 73.6123L3407.53 72.4412L3405.81 76.0533ZM3410.65 47.7515C3410.53 55.523 3409.32 61.4918 3404.8 73.5444L3408.54 74.95C3413.16 62.6439 3414.52 56.1991 3414.65 47.8095L3410.65 47.7515ZM3373.73 49.7805H3412.65V45.7805H3373.73V49.7805Z" fill="black" mask="url(#path-1-inside-1_14_2859)"/>
</svg>
