<svg width="286" height="146" viewBox="0 0 286 146" fill="none" xmlns="http://www.w3.org/2000/svg">
<path fill-rule="evenodd" clip-rule="evenodd" d="M142.629 0C153.524 0 162.356 8.83174 162.356 19.727V49.3587H142.629V39.4539H122.902V19.727C122.902 8.83174 131.733 0 142.629 0ZM0.0825396 86.0063V94.0126H0C0 103.34 3.05396 107.962 9.16189 107.962C14.2793 107.962 17.0032 105.155 18.819 100.368L19.4793 100.616C18.4889 103.835 17.9111 106.063 17.9111 107.467H28.2285V60.9143H17.746V69.4158C17.746 72.8 18.2412 75.5238 19.4793 79.3206L18.819 79.6507C17.0032 74.8634 14.1143 72.0571 9.16189 72.0571C3.1365 72.0571 0.0825396 76.6793 0.0825396 86.0063ZM17.746 86.6666V93.5174H17.6635C17.6635 98.3872 16.4254 100.863 13.8666 100.863C11.6381 100.863 10.5651 98.7999 10.5651 94.5904V85.511C10.5651 81.3015 11.7206 79.238 13.9492 79.238C16.4254 79.238 17.746 81.7968 17.746 86.6666ZM109.612 120.921C109.612 121.911 108.704 122.819 107.714 122.819C106.723 122.819 105.815 121.994 105.815 120.921C105.815 119.848 106.723 119.022 107.714 119.022C108.704 119.022 109.612 119.848 109.612 120.921ZM109.117 140.565H106.228V125.543H109.117V140.565ZM72.3867 140.565H69.4978V138.749C68.3422 140.4 66.5264 140.978 65.0407 140.978C60.9962 140.978 58.4375 137.759 58.4375 133.054C58.4375 128.349 61.0788 125.13 65.1232 125.13C67.1042 125.13 68.5899 125.873 69.4978 127.194V120.343H72.3867V140.565ZM61.4915 132.971C61.4915 136.521 62.8946 138.419 65.6184 138.419C68.0121 138.419 69.6629 136.686 69.6629 132.971C69.6629 129.257 67.847 127.524 65.6184 127.524C63.0597 127.524 61.4915 129.505 61.4915 132.971ZM89.1426 132.971V133.632H78.2474C78.3299 136.768 79.8982 138.502 82.622 138.502C84.5204 138.502 85.841 137.511 86.5839 136.191L88.9775 137.429C87.6569 139.657 85.5109 140.895 82.5394 140.895C77.8347 140.895 75.276 137.429 75.276 132.889C75.276 128.349 77.6696 125.048 82.3744 125.048C86.749 125.048 89.1426 128.514 89.1426 132.889V132.971ZM78.3299 131.403H86.1712C86.0061 128.844 84.6029 127.441 82.3744 127.441C79.9807 127.441 78.5775 128.844 78.3299 131.403ZM103.339 127.442L103.339 127.441L103.422 127.524C103.394 127.496 103.367 127.469 103.339 127.442ZM103.339 127.442L101.606 129.175C100.533 128.102 99.0472 127.524 97.3138 127.524C95.3329 127.524 94.2599 128.267 94.2599 129.505C94.2599 130.743 95.0853 131.155 98.0567 131.651C101.688 132.229 103.669 133.384 103.669 136.273C103.669 139.162 101.441 140.978 97.2313 140.978C94.2599 140.978 91.8662 139.987 90.4631 138.336L92.3615 136.521C93.517 137.841 95.2504 138.584 97.2313 138.584C99.7075 138.584 100.781 137.759 100.781 136.438C100.781 135.117 100.12 134.54 96.571 134.044C93.0218 133.467 91.4535 131.981 91.4535 129.67C91.4535 126.863 93.8472 125.213 97.3964 125.213C100.067 125.213 101.944 126.085 103.339 127.442ZM123.891 127.359C124.469 127.028 125.047 127.028 126.12 127.028L126.037 126.946V124.387C124.386 124.387 123.066 124.882 122.24 125.873C121.332 125.378 120.012 125.048 118.443 125.048C114.317 125.048 112.253 127.359 112.253 130.082C112.253 131.568 112.913 132.724 113.986 133.549C112.913 134.292 112.501 135.2 112.501 136.025C112.501 137.181 112.913 137.924 113.904 138.584C112.501 139.327 111.758 140.317 111.758 141.638C111.758 143.949 113.656 145.765 118.691 145.765C123.148 145.765 125.79 143.867 125.79 141.143C125.79 138.832 124.221 136.851 119.929 136.851H116.958C115.555 136.851 115.059 136.355 115.059 135.448C115.059 135.117 115.307 134.705 115.555 134.375C116.463 134.787 117.536 134.952 118.526 134.952C122.323 134.952 124.716 133.054 124.716 130.165C124.716 129.092 124.469 128.184 123.891 127.359ZM114.482 141.308C114.482 140.565 114.729 139.987 115.885 139.244H119.104C122.158 139.244 123.066 139.905 123.066 141.308C123.066 142.628 121.663 143.536 118.774 143.536C115.637 143.536 114.482 142.711 114.482 141.308ZM118.443 132.889C116.215 132.889 115.142 131.733 115.142 130.165C115.142 128.432 116.215 127.359 118.526 127.359C120.837 127.359 121.91 128.432 121.91 130.165C121.91 131.898 120.672 132.889 118.443 132.889ZM140.812 130.908V140.565H137.923V131.898C137.923 129.34 137.345 127.606 135.034 127.606C132.888 127.606 131.237 129.422 131.237 131.981V140.565H128.348V125.543H131.237V127.524C132.393 125.873 134.044 125.13 135.694 125.13C139.079 125.13 140.894 127.359 140.894 130.908H140.812ZM161.942 132.147L161.942 132.146L162.025 132.229C161.997 132.201 161.969 132.174 161.942 132.147ZM161.942 132.147L160.209 133.879C159.136 132.806 157.65 132.229 155.999 132.229C154.101 132.229 153.028 132.971 153.028 134.21C153.028 135.448 153.853 135.86 156.742 136.356C160.374 136.933 162.272 138.089 162.272 140.978C162.272 143.867 160.044 145.683 155.917 145.683C153.028 145.683 150.634 144.692 149.231 143.041L151.047 141.225C152.202 142.546 153.936 143.289 155.834 143.289C158.228 143.289 159.383 142.463 159.383 141.143C159.383 139.822 158.723 139.244 155.256 138.749C151.79 138.171 150.222 136.686 150.222 134.375C150.222 131.568 152.615 129.917 156.082 129.917C158.671 129.917 160.547 130.79 161.942 132.147ZM168.132 130.248H172.012V132.476H168.132V141.308C168.132 142.629 168.628 143.206 170.031 143.206C170.856 143.206 171.764 143.041 172.342 142.794V145.187C171.599 145.435 170.609 145.683 169.453 145.683C166.399 145.683 165.326 144.032 165.326 141.721V132.476H163.263V130.248H165.326V126.286H168.132V130.248ZM183.65 145.352H186.374V130.33H183.568V139.079C183.568 141.803 181.917 143.289 179.854 143.289C177.955 143.289 177.13 142.298 177.13 139.987V130.33H174.323V140.565C174.323 144.032 176.304 145.765 179.358 145.765C180.927 145.765 182.577 145.022 183.65 143.619V145.352ZM202.964 145.352H200.241V143.536C199.085 145.187 197.352 145.765 195.866 145.765C191.904 145.765 189.345 142.546 189.345 137.841C189.345 133.136 191.904 129.917 195.866 129.917C197.847 129.917 199.25 130.66 200.158 131.981V125.13H202.964V145.352ZM192.317 137.759C192.317 141.308 193.72 143.206 196.361 143.206C198.672 143.206 200.323 141.473 200.323 137.759C200.323 134.044 198.59 132.311 196.361 132.311C193.802 132.311 192.317 134.292 192.317 137.759ZM208.165 127.524C209.155 127.524 210.063 126.616 210.063 125.625C210.063 124.552 209.155 123.727 208.165 123.727C207.174 123.727 206.266 124.552 206.266 125.625C206.266 126.698 207.174 127.524 208.165 127.524ZM206.844 145.27H209.651V130.248H206.844V145.27ZM226.819 137.841C226.819 142.546 224.177 145.765 219.638 145.765C215.098 145.765 212.457 142.381 212.457 137.841C212.457 133.302 215.18 129.917 219.638 129.917C224.095 129.917 226.819 133.384 226.819 137.841ZM215.428 137.841C215.428 141.39 216.996 143.371 219.638 143.371C222.279 143.371 223.847 141.39 223.847 137.841C223.847 134.292 222.114 132.476 219.638 132.476C217.161 132.476 215.428 134.457 215.428 137.841ZM31.8603 93.0222V86.9968C31.8603 77.5047 36.8952 71.7269 46.1397 71.7269C55.3841 71.7269 60.419 77.5047 60.419 86.9968V93.0222C60.419 102.432 55.3016 108.292 46.1397 108.292C36.9778 108.292 31.8603 102.432 31.8603 93.0222ZM49.6889 94.7555V85.2634C49.6889 80.9714 48.5333 78.9904 46.1397 78.9904C43.746 78.9904 42.5905 80.9714 42.5905 85.2634V94.7555C42.5905 98.965 43.746 100.946 46.1397 100.946C48.5333 100.946 49.6889 98.965 49.6889 94.7555ZM61.3274 72.5524L69.0036 107.467V107.549H80.9719L82.8703 93.8476C83.2004 91.7015 83.448 89.2254 83.6957 85.0984H84.356C84.6861 89.2254 84.9338 91.7015 85.2639 93.765L87.1623 107.467H99.1306L106.807 72.5524H96.4893L94.2607 87.9873C93.848 91.0412 93.6004 93.1872 93.4353 96.1587H92.775C92.5274 93.1872 92.2798 90.9587 91.7845 87.9873L89.2258 72.5524H79.4861L77.0925 87.9873C76.5973 90.9587 76.2671 93.1872 76.102 96.1587H75.4417C75.1941 93.1872 74.9465 90.9587 74.4512 87.9873L72.0576 72.5524H61.3274ZM109.117 107.466V72.5522H119.269C119.269 74.6983 118.939 76.349 117.701 79.4855L118.361 79.8157C120.673 74.5332 123.974 72.1395 128.679 72.1395C133.961 72.1395 136.52 74.8633 136.52 80.3935V107.549H126.038V82.7871C126.038 80.6411 125.212 79.5681 123.561 79.5681C121.003 79.5681 119.6 82.6221 119.6 87.7395V107.632H109.117V107.466ZM149.562 104.082L139.574 105.568L139.492 105.651C139.492 113.079 144.279 116.629 152.863 116.629C161.447 116.629 166.152 112.584 166.152 106.394C166.152 100.203 162.108 97.6444 158.476 95.746L154.844 93.8476C151.213 91.9492 149.974 90.7111 149.974 88.8952C149.974 87.492 150.965 86.7492 152.533 86.7492C154.679 86.7492 155.587 88.0698 155.587 91.7015L165.327 90.2984C165.327 83.3651 160.622 80.0635 152.533 80.0635C144.444 80.0635 139.987 83.6952 139.987 90.2158C139.987 94.8381 143.206 97.892 146.921 99.9555L150.552 101.936C154.184 104 155.587 105.403 155.587 107.467C155.587 109.035 154.679 109.86 153.028 109.86C150.635 109.86 149.562 107.962 149.562 104.082ZM171.27 106.641V88.4H167.39V80.8064H171.27V73.6254L181.752 70.5715V80.7238H188.273V88.3175H181.752V105.321C181.752 107.384 182.66 108.21 184.476 108.21C185.632 108.21 186.952 107.962 188.438 107.549L187.778 114.978C185.797 115.886 183.32 116.381 180.762 116.381C174.406 116.381 171.187 113.162 171.187 106.476L171.27 106.641ZM190.171 107.384V107.632L190.089 107.549C190.089 112.997 193.225 116.463 198.673 116.463C204.121 116.463 207.257 113.822 208.413 108.54L209.073 108.705C208.33 114.4 210.311 116.546 216.419 116.546C217.162 116.546 218.07 116.463 218.73 116.298L219.803 109.282C217.657 109.282 217.162 108.952 217.162 107.136V90.6285C217.162 83.5301 212.622 79.9809 204.286 79.9809C195.041 79.9809 190.667 84.6856 190.832 93.3523L201.232 94.0126C201.149 88.8126 202.14 87.2443 204.203 87.2443C206.019 87.2443 206.762 88.3173 206.762 90.6285V94.1777L201.479 95.6634C196.197 97.0666 190.171 99.3777 190.171 107.384ZM206.762 100.121V103.009C206.762 106.476 205.276 108.705 202.965 108.705C201.479 108.705 200.737 107.714 200.737 105.816V105.486C200.737 103.009 202.387 101.606 204.533 100.863L206.762 100.121ZM222.279 77.6697V69.8284H233.009V77.6697H222.279ZM222.444 115.72V80.8062H232.927V115.72H222.444ZM237.136 80.8062V115.638H247.619V100.533C247.619 91.7014 248.939 90.2157 257.853 89.3903L256.78 79.6506C251.993 80.3109 249.599 82.0443 246.463 88.2347L245.885 87.9046C247.206 84.603 247.536 82.9522 247.453 80.8062H237.136ZM259.422 105.568L269.41 104.082C269.41 107.962 270.483 109.86 272.876 109.86C274.527 109.86 275.435 109.035 275.435 107.467C275.435 105.403 274.032 104 270.4 101.936L266.768 99.9555C263.054 97.892 259.835 94.8381 259.835 90.2158C259.835 83.6952 264.292 80.0635 272.381 80.0635C280.47 80.0635 285.175 83.3651 285.175 90.2984L275.435 91.7015C275.435 88.0698 274.527 86.7492 272.381 86.7492C270.813 86.7492 269.822 87.492 269.822 88.8952C269.822 90.7111 271.06 91.9492 274.692 93.8476L278.324 95.746C281.956 97.6444 286 100.203 286 106.394C286 112.584 281.295 116.629 272.711 116.629C264.127 116.629 259.34 113.079 259.34 105.651L259.422 105.568Z" fill="black"/>
</svg>
